<svg width="135" height="40" viewBox="0 0 135 40" fill="none" xmlns="http://www.w3.org/2000/svg">
<mask id="mask0_5629_81689" style="mask-type:alpha" maskUnits="userSpaceOnUse" x="8" y="11" width="18" height="18">
<rect x="8" y="11" width="18" height="18" fill="#D9D9D9"/>
</mask>
<g mask="url(#mask0_5629_81689)">
<path d="M11.75 26.75C11.3375 26.75 10.9844 26.6031 10.6906 26.3094C10.3969 26.0156 10.25 25.6625 10.25 25.25V14.75C10.25 14.3375 10.3969 13.9844 10.6906 13.6906C10.9844 13.3969 11.3375 13.25 11.75 13.25H17V14.75H11.75V25.25H22.25V20H23.75V25.25C23.75 25.6625 23.6031 26.0156 23.3094 26.3094C23.0156 26.6031 22.6625 26.75 22.25 26.75H11.75ZM15.275 22.775L14.225 21.725L21.2 14.75H18.5V13.25H23.75V18.5H22.25V15.8L15.275 22.775Z" fill="#65558F"/>
</g>
<path d="M38.9842 16.373L36.0105 25H34.2127L37.9588 15.0469H39.1072L38.9842 16.373ZM41.4725 25L38.492 16.373L38.3621 15.0469H39.5174L43.2771 25H41.4725ZM41.3289 21.3086V22.6689H35.9148V21.3086H41.3289ZM47.3488 23.8242C47.6177 23.8242 47.8592 23.7718 48.0734 23.667C48.2922 23.5576 48.4676 23.4072 48.5998 23.2158C48.7365 23.0244 48.8117 22.8034 48.8254 22.5527H50.3771C50.368 23.0312 50.2268 23.4665 49.9533 23.8584C49.6799 24.2503 49.3176 24.5625 48.8664 24.7949C48.4152 25.0228 47.9162 25.1367 47.3693 25.1367C46.8042 25.1367 46.312 25.041 45.8928 24.8496C45.4735 24.6536 45.1249 24.3848 44.8469 24.043C44.5689 23.7012 44.3592 23.307 44.218 22.8604C44.0813 22.4137 44.0129 21.9352 44.0129 21.4248V21.1855C44.0129 20.6751 44.0813 20.1966 44.218 19.75C44.3592 19.2988 44.5689 18.9023 44.8469 18.5605C45.1249 18.2188 45.4735 17.9521 45.8928 17.7607C46.312 17.5648 46.802 17.4668 47.3625 17.4668C47.9549 17.4668 48.4745 17.5853 48.9211 17.8223C49.3677 18.0547 49.7186 18.3805 49.9738 18.7998C50.2336 19.2145 50.368 19.6976 50.3771 20.249H48.8254C48.8117 19.9756 48.7434 19.7295 48.6203 19.5107C48.5018 19.2874 48.3332 19.1097 48.1145 18.9775C47.9003 18.8454 47.6428 18.7793 47.342 18.7793C47.0093 18.7793 46.7336 18.8477 46.5148 18.9844C46.2961 19.1165 46.1252 19.2988 46.0021 19.5312C45.8791 19.7591 45.7902 20.0166 45.7355 20.3037C45.6854 20.5863 45.6604 20.8802 45.6604 21.1855V21.4248C45.6604 21.7301 45.6854 22.0264 45.7355 22.3135C45.7857 22.6006 45.8723 22.8581 45.9953 23.0859C46.1229 23.3092 46.2961 23.4893 46.5148 23.626C46.7336 23.7581 47.0116 23.8242 47.3488 23.8242ZM54.7633 23.8242C55.0322 23.8242 55.2737 23.7718 55.4879 23.667C55.7066 23.5576 55.8821 23.4072 56.0143 23.2158C56.151 23.0244 56.2262 22.8034 56.2398 22.5527H57.7916C57.7825 23.0312 57.6412 23.4665 57.3678 23.8584C57.0943 24.2503 56.732 24.5625 56.2809 24.7949C55.8297 25.0228 55.3307 25.1367 54.7838 25.1367C54.2187 25.1367 53.7265 25.041 53.3072 24.8496C52.888 24.6536 52.5393 24.3848 52.2613 24.043C51.9833 23.7012 51.7737 23.307 51.6324 22.8604C51.4957 22.4137 51.4273 21.9352 51.4273 21.4248V21.1855C51.4273 20.6751 51.4957 20.1966 51.6324 19.75C51.7737 19.2988 51.9833 18.9023 52.2613 18.5605C52.5393 18.2188 52.888 17.9521 53.3072 17.7607C53.7265 17.5648 54.2164 17.4668 54.777 17.4668C55.3694 17.4668 55.8889 17.5853 56.3355 17.8223C56.7822 18.0547 57.1331 18.3805 57.3883 18.7998C57.648 19.2145 57.7825 19.6976 57.7916 20.249H56.2398C56.2262 19.9756 56.1578 19.7295 56.0348 19.5107C55.9163 19.2874 55.7477 19.1097 55.5289 18.9775C55.3147 18.8454 55.0572 18.7793 54.7564 18.7793C54.4238 18.7793 54.148 18.8477 53.9293 18.9844C53.7105 19.1165 53.5396 19.2988 53.4166 19.5312C53.2936 19.7591 53.2047 20.0166 53.15 20.3037C53.0999 20.5863 53.0748 20.8802 53.0748 21.1855V21.4248C53.0748 21.7301 53.0999 22.0264 53.15 22.3135C53.2001 22.6006 53.2867 22.8581 53.4098 23.0859C53.5374 23.3092 53.7105 23.4893 53.9293 23.626C54.148 23.7581 54.426 23.8242 54.7633 23.8242ZM62.417 25.1367C61.8701 25.1367 61.3757 25.0479 60.9336 24.8701C60.4961 24.6878 60.1224 24.4349 59.8125 24.1113C59.5072 23.7878 59.2725 23.4072 59.1084 22.9697C58.9443 22.5322 58.8623 22.0605 58.8623 21.5547V21.2812C58.8623 20.7025 58.9466 20.1784 59.1152 19.709C59.2839 19.2396 59.5186 18.8385 59.8193 18.5059C60.1201 18.1686 60.4756 17.9111 60.8857 17.7334C61.2959 17.5557 61.7402 17.4668 62.2188 17.4668C62.7474 17.4668 63.21 17.5557 63.6064 17.7334C64.0029 17.9111 64.3311 18.1618 64.5908 18.4854C64.8551 18.8044 65.0511 19.1849 65.1787 19.627C65.3109 20.069 65.377 20.5566 65.377 21.0898V21.7939H59.6621V20.6113H63.75V20.4814C63.7409 20.1852 63.6816 19.9072 63.5723 19.6475C63.4674 19.3877 63.3057 19.1781 63.0869 19.0186C62.8682 18.859 62.5765 18.7793 62.2119 18.7793C61.9385 18.7793 61.6947 18.8385 61.4805 18.957C61.2708 19.071 61.0954 19.2373 60.9541 19.4561C60.8128 19.6748 60.7035 19.9391 60.626 20.249C60.5531 20.5544 60.5166 20.8984 60.5166 21.2812V21.5547C60.5166 21.8783 60.5599 22.179 60.6465 22.457C60.7376 22.7305 60.8698 22.9697 61.043 23.1748C61.2161 23.3799 61.4258 23.5417 61.6719 23.6602C61.918 23.7741 62.1982 23.8311 62.5127 23.8311C62.9092 23.8311 63.2624 23.7513 63.5723 23.5918C63.8822 23.4323 64.151 23.2067 64.3789 22.915L65.2471 23.7559C65.0876 23.9883 64.8802 24.2116 64.625 24.4258C64.3698 24.6354 64.0576 24.8063 63.6885 24.9385C63.3239 25.0706 62.9001 25.1367 62.417 25.1367ZM61.2686 16.5576L62.6016 14.5H64.4609L62.6016 16.5576H61.2686ZM70.9115 22.9971C70.9115 22.833 70.8705 22.6849 70.7885 22.5527C70.7064 22.416 70.5492 22.293 70.3168 22.1836C70.0889 22.0742 69.7517 21.974 69.3051 21.8828C68.9132 21.7962 68.5531 21.6937 68.225 21.5752C67.9014 21.4521 67.6234 21.304 67.391 21.1309C67.1586 20.9577 66.9786 20.7526 66.851 20.5156C66.7234 20.2786 66.6596 20.0052 66.6596 19.6953C66.6596 19.3945 66.7257 19.1097 66.8578 18.8408C66.99 18.5719 67.1791 18.335 67.4252 18.1299C67.6713 17.9248 67.9698 17.763 68.3207 17.6445C68.6762 17.526 69.0727 17.4668 69.5102 17.4668C70.1299 17.4668 70.6609 17.5716 71.1029 17.7812C71.5495 17.9863 71.8913 18.2666 72.1283 18.6221C72.3653 18.973 72.4838 19.3695 72.4838 19.8115H70.8363C70.8363 19.6156 70.7862 19.4333 70.6859 19.2646C70.5902 19.0915 70.4444 18.9525 70.2484 18.8477C70.0525 18.7383 69.8064 18.6836 69.5102 18.6836C69.2276 18.6836 68.9929 18.7292 68.8061 18.8203C68.6238 18.9069 68.487 19.0208 68.3959 19.1621C68.3093 19.3034 68.266 19.4583 68.266 19.627C68.266 19.75 68.2888 19.8617 68.3344 19.9619C68.3845 20.0576 68.4665 20.1465 68.5805 20.2285C68.6944 20.306 68.8493 20.3789 69.0453 20.4473C69.2458 20.5156 69.4965 20.5817 69.7973 20.6455C70.3624 20.764 70.8477 20.9167 71.2533 21.1035C71.6635 21.2858 71.9779 21.5228 72.1967 21.8145C72.4154 22.1016 72.5248 22.4661 72.5248 22.9082C72.5248 23.2363 72.4542 23.5371 72.3129 23.8105C72.1762 24.0794 71.9757 24.3141 71.7113 24.5146C71.447 24.7106 71.1303 24.8633 70.7611 24.9727C70.3965 25.082 69.9864 25.1367 69.5307 25.1367C68.8607 25.1367 68.2934 25.0182 67.8285 24.7812C67.3637 24.5397 67.0105 24.2321 66.7689 23.8584C66.532 23.4801 66.4135 23.0882 66.4135 22.6826H68.0063C68.0245 22.988 68.1088 23.2318 68.2592 23.4141C68.4141 23.5918 68.6055 23.7217 68.8334 23.8037C69.0658 23.8812 69.3051 23.9199 69.5512 23.9199C69.8474 23.9199 70.0958 23.8812 70.2963 23.8037C70.4968 23.7217 70.6495 23.6123 70.7543 23.4756C70.8591 23.3343 70.9115 23.1748 70.9115 22.9971ZM81.8234 23.5166V19.9893C81.8234 19.7249 81.7756 19.4971 81.6799 19.3057C81.5842 19.1143 81.4383 18.9661 81.2424 18.8613C81.051 18.7565 80.8094 18.7041 80.5178 18.7041C80.2489 18.7041 80.0165 18.7497 79.8205 18.8408C79.6245 18.932 79.4719 19.055 79.3625 19.21C79.2531 19.3649 79.1984 19.5404 79.1984 19.7363H77.5578C77.5578 19.4447 77.6284 19.1621 77.7697 18.8887C77.911 18.6152 78.1161 18.3714 78.385 18.1572C78.6538 17.943 78.9751 17.7744 79.3488 17.6514C79.7225 17.5283 80.1418 17.4668 80.6066 17.4668C81.1626 17.4668 81.6548 17.5602 82.0832 17.7471C82.5161 17.9339 82.8557 18.2165 83.1018 18.5947C83.3524 18.9684 83.4777 19.4378 83.4777 20.0029V23.291C83.4777 23.6283 83.5005 23.9313 83.5461 24.2002C83.5962 24.4645 83.6669 24.6947 83.758 24.8906V25H82.0695C81.9921 24.8223 81.9305 24.5967 81.885 24.3232C81.8439 24.0452 81.8234 23.7764 81.8234 23.5166ZM82.0627 20.502L82.0764 21.5205H80.8937C80.5884 21.5205 80.3195 21.5501 80.0871 21.6094C79.8547 21.6641 79.661 21.7461 79.5061 21.8555C79.3511 21.9648 79.2349 22.097 79.1574 22.252C79.0799 22.4069 79.0412 22.5824 79.0412 22.7783C79.0412 22.9743 79.0868 23.1543 79.1779 23.3184C79.2691 23.4779 79.4012 23.6032 79.5744 23.6943C79.7521 23.7855 79.9663 23.8311 80.217 23.8311C80.5542 23.8311 80.8482 23.7627 81.0988 23.626C81.354 23.4847 81.5546 23.3138 81.7004 23.1133C81.8462 22.9082 81.9237 22.7145 81.9328 22.5322L82.466 23.2637C82.4113 23.4505 82.3179 23.651 82.1857 23.8652C82.0536 24.0794 81.8804 24.2845 81.6662 24.4805C81.4566 24.6719 81.2036 24.8291 80.9074 24.9521C80.6158 25.0752 80.2785 25.1367 79.8957 25.1367C79.4126 25.1367 78.982 25.041 78.6037 24.8496C78.2255 24.6536 77.9292 24.3916 77.715 24.0635C77.5008 23.7308 77.3937 23.3548 77.3937 22.9355C77.3937 22.5436 77.4667 22.1973 77.6125 21.8965C77.7629 21.5911 77.9816 21.3359 78.2687 21.1309C78.5604 20.9258 78.9159 20.7708 79.3352 20.666C79.7544 20.5566 80.2329 20.502 80.7707 20.502H82.0627ZM89.7506 23.2568V17.6035H91.4049V25H89.8463L89.7506 23.2568ZM89.983 21.7188L90.5367 21.7051C90.5367 22.2018 90.482 22.6598 90.3727 23.0791C90.2633 23.4938 90.0947 23.8561 89.8668 24.166C89.6389 24.4714 89.3473 24.7106 88.9918 24.8838C88.6363 25.0524 88.2102 25.1367 87.7135 25.1367C87.3535 25.1367 87.023 25.0843 86.7223 24.9795C86.4215 24.8747 86.1617 24.7129 85.943 24.4941C85.7288 24.2754 85.5624 23.9906 85.4439 23.6396C85.3255 23.2887 85.2662 22.8695 85.2662 22.3818V17.6035H86.9137V22.3955C86.9137 22.6644 86.9456 22.89 87.0094 23.0723C87.0732 23.25 87.1598 23.3936 87.2691 23.5029C87.3785 23.6123 87.5061 23.6898 87.652 23.7354C87.7978 23.7809 87.9527 23.8037 88.1168 23.8037C88.5862 23.8037 88.9553 23.7126 89.2242 23.5303C89.4977 23.3434 89.6913 23.0928 89.8053 22.7783C89.9238 22.4639 89.983 22.1107 89.983 21.7188ZM98.7895 23.3594L100.498 17.6035H101.551L101.264 19.3262L99.5414 25H98.598L98.7895 23.3594ZM97.7846 17.6035L99.1176 23.3867L99.227 25H98.1742L96.1713 17.6035H97.7846ZM103.151 23.3184L104.443 17.6035H106.049L104.053 25H103L103.151 23.3184ZM101.729 17.6035L103.417 23.291L103.629 25H102.686L100.943 19.3193L100.656 17.6035H101.729ZM110.531 25.1367C109.984 25.1367 109.49 25.0479 109.048 24.8701C108.61 24.6878 108.236 24.4349 107.927 24.1113C107.621 23.7878 107.387 23.4072 107.222 22.9697C107.058 22.5322 106.976 22.0605 106.976 21.5547V21.2812C106.976 20.7025 107.061 20.1784 107.229 19.709C107.398 19.2396 107.633 18.8385 107.933 18.5059C108.234 18.1686 108.59 17.9111 109 17.7334C109.41 17.5557 109.854 17.4668 110.333 17.4668C110.861 17.4668 111.324 17.5557 111.721 17.7334C112.117 17.9111 112.445 18.1618 112.705 18.4854C112.969 18.8044 113.165 19.1849 113.293 19.627C113.425 20.069 113.491 20.5566 113.491 21.0898V21.7939H107.776V20.6113H111.864V20.4814C111.855 20.1852 111.796 19.9072 111.686 19.6475C111.582 19.3877 111.42 19.1781 111.201 19.0186C110.982 18.859 110.691 18.7793 110.326 18.7793C110.053 18.7793 109.809 18.8385 109.595 18.957C109.385 19.071 109.209 19.2373 109.068 19.4561C108.927 19.6748 108.818 19.9391 108.74 20.249C108.667 20.5544 108.631 20.8984 108.631 21.2812V21.5547C108.631 21.8783 108.674 22.179 108.761 22.457C108.852 22.7305 108.984 22.9697 109.157 23.1748C109.33 23.3799 109.54 23.5417 109.786 23.6602C110.032 23.7741 110.312 23.8311 110.627 23.8311C111.023 23.8311 111.376 23.7513 111.686 23.5918C111.996 23.4323 112.265 23.2067 112.493 22.915L113.361 23.7559C113.202 23.9883 112.994 24.2116 112.739 24.4258C112.484 24.6354 112.172 24.8063 111.803 24.9385C111.438 25.0706 111.014 25.1367 110.531 25.1367ZM114.883 14.5H116.53V23.4209L116.373 25H114.883V14.5ZM121.357 21.2334V21.377C121.357 21.9238 121.295 22.4274 121.172 22.8877C121.054 23.3434 120.871 23.7399 120.625 24.0771C120.384 24.4144 120.083 24.6764 119.723 24.8633C119.367 25.0456 118.955 25.1367 118.486 25.1367C118.025 25.1367 117.624 25.0501 117.282 24.877C116.941 24.7038 116.654 24.4577 116.421 24.1387C116.193 23.8197 116.009 23.4391 115.867 22.9971C115.726 22.555 115.626 22.0674 115.567 21.5342V21.0762C115.626 20.5384 115.726 20.0508 115.867 19.6133C116.009 19.1712 116.193 18.7907 116.421 18.4717C116.654 18.1481 116.938 17.8997 117.276 17.7266C117.617 17.5534 118.016 17.4668 118.472 17.4668C118.946 17.4668 119.363 17.5579 119.723 17.7402C120.087 17.9225 120.39 18.1823 120.632 18.5195C120.874 18.8522 121.054 19.2487 121.172 19.709C121.295 20.1693 121.357 20.6774 121.357 21.2334ZM119.709 21.377V21.2334C119.709 20.9007 119.682 20.5885 119.627 20.2969C119.572 20.0007 119.481 19.7409 119.354 19.5176C119.231 19.2943 119.062 19.1188 118.848 18.9912C118.638 18.859 118.376 18.793 118.062 18.793C117.77 18.793 117.519 18.8431 117.31 18.9434C117.1 19.0436 116.925 19.1803 116.783 19.3535C116.642 19.5267 116.53 19.7272 116.448 19.9551C116.371 20.1829 116.319 20.429 116.291 20.6934V21.9307C116.332 22.2725 116.419 22.5869 116.551 22.874C116.688 23.1566 116.879 23.3844 117.125 23.5576C117.371 23.7262 117.688 23.8105 118.075 23.8105C118.381 23.8105 118.638 23.749 118.848 23.626C119.057 23.5029 119.224 23.332 119.347 23.1133C119.474 22.89 119.566 22.6302 119.62 22.334C119.68 22.0378 119.709 21.7188 119.709 21.377Z" fill="#65558F"/>
</svg>
