<svg width="41" height="41" viewBox="0 0 41 41" fill="none" xmlns="http://www.w3.org/2000/svg">
<path d="M4.66675 34.9999V30.9999H8.66675V16.9999C8.66675 14.2332 9.50008 11.7749 11.1667 9.6249C12.8334 7.4749 15.0001 6.06657 17.6667 5.3999V3.9999C17.6667 3.16657 17.9584 2.45824 18.5417 1.8749C19.1251 1.29157 19.8334 0.999902 20.6667 0.999902C21.5001 0.999902 22.2084 1.29157 22.7917 1.8749C23.3751 2.45824 23.6667 3.16657 23.6667 3.9999V5.3999C26.3334 6.06657 28.5001 7.4749 30.1667 9.6249C31.8334 11.7749 32.6667 14.2332 32.6667 16.9999V30.9999H36.6667V34.9999H4.66675ZM20.6667 40.9999C19.5667 40.9999 18.6251 40.6082 17.8417 39.8249C17.0584 39.0416 16.6667 38.0999 16.6667 36.9999H24.6667C24.6667 38.0999 24.2751 39.0416 23.4917 39.8249C22.7084 40.6082 21.7667 40.9999 20.6667 40.9999ZM0.666748 16.9999C0.666748 13.6666 1.40841 10.6082 2.89175 7.8249C4.37508 5.04157 6.36675 2.73324 8.86675 0.899902L11.2167 4.0999C9.21675 5.56657 7.62508 7.41657 6.44175 9.6499C5.25841 11.8832 4.66675 14.3332 4.66675 16.9999H0.666748ZM36.6667 16.9999C36.6667 14.3332 36.0751 11.8832 34.8918 9.6499C33.7084 7.41657 32.1167 5.56657 30.1167 4.0999L32.4667 0.899902C34.9668 2.73324 36.9584 5.04157 38.4417 7.8249C39.9251 10.6082 40.6667 13.6666 40.6667 16.9999H36.6667Z" fill="#65558F"/>
</svg>
