<svg width="21" height="20" viewBox="0 0 21 20" fill="none" xmlns="http://www.w3.org/2000/svg">
<path d="M9.33047 14.6L16.3805 7.55L14.9805 6.15L9.33047 11.8L6.48047 8.95L5.08047 10.35L9.33047 14.6ZM10.7305 20C9.34714 20 8.04714 19.7375 6.83047 19.2125C5.6138 18.6875 4.55547 17.975 3.65547 17.075C2.75547 16.175 2.04297 15.1167 1.51797 13.9C0.992969 12.6833 0.730469 11.3833 0.730469 10C0.730469 8.61667 0.992969 7.31667 1.51797 6.1C2.04297 4.88333 2.75547 3.825 3.65547 2.925C4.55547 2.025 5.6138 1.3125 6.83047 0.7875C8.04714 0.2625 9.34714 0 10.7305 0C12.1138 0 13.4138 0.2625 14.6305 0.7875C15.8471 1.3125 16.9055 2.025 17.8055 2.925C18.7055 3.825 19.418 4.88333 19.943 6.1C20.468 7.31667 20.7305 8.61667 20.7305 10C20.7305 11.3833 20.468 12.6833 19.943 13.9C19.418 15.1167 18.7055 16.175 17.8055 17.075C16.9055 17.975 15.8471 18.6875 14.6305 19.2125C13.4138 19.7375 12.1138 20 10.7305 20Z" fill="#65558F"/>
</svg>
