<svg width="41" height="40" viewBox="0 0 41 40" fill="none" xmlns="http://www.w3.org/2000/svg">
<path d="M28.3333 26C26.6666 26 25.25 25.4167 24.0833 24.25C22.9166 23.0833 22.3333 21.6667 22.3333 20C22.3333 18.3333 22.9166 16.9167 24.0833 15.75C25.25 14.5833 26.6666 14 28.3333 14C30 14 31.4166 14.5833 32.5833 15.75C33.75 16.9167 34.3333 18.3333 34.3333 20C34.3333 21.6667 33.75 23.0833 32.5833 24.25C31.4166 25.4167 30 26 28.3333 26ZM16.3333 40V34.2C16.3333 33.5 16.5 32.8417 16.8333 32.225C17.1666 31.6083 17.6333 31.1167 18.2333 30.75C19.3 30.1167 20.425 29.5917 21.6083 29.175C22.7916 28.7583 24 28.45 25.2333 28.25L28.3333 32L31.4333 28.25C32.6666 28.45 33.8666 28.7583 35.0333 29.175C36.2 29.5917 37.3166 30.1167 38.3833 30.75C38.9833 31.1167 39.4583 31.6083 39.8083 32.225C40.1583 32.8417 40.3333 33.5 40.3333 34.2V40H16.3333ZM12.3333 34.2V36H4.33331C3.23331 36 2.29165 35.6083 1.50831 34.825C0.72498 34.0417 0.333313 33.1 0.333313 32V4C0.333313 2.9 0.72498 1.95833 1.50831 1.175C2.29165 0.391667 3.23331 0 4.33331 0H32.3333C33.4333 0 34.375 0.391667 35.1583 1.175C35.9416 1.95833 36.3333 2.9 36.3333 4V14C35.3 12.7 34.1333 11.7083 32.8333 11.025C31.5333 10.3417 30.0333 10 28.3333 10V8H8.33331V12H22.3333C21.6666 12.5333 21.0666 13.1333 20.5333 13.8C20 14.4667 19.55 15.2 19.1833 16H8.33331V20H18.3333C18.3333 20.7 18.4083 21.3833 18.5583 22.05C18.7083 22.7167 18.9166 23.3667 19.1833 24H8.33331V28H15.2333C14.3333 28.7667 13.625 29.6917 13.1083 30.775C12.5916 31.8583 12.3333 33 12.3333 34.2Z" fill="#65558F"/>
</svg>
