<svg width="34" height="35" viewBox="0 0 34 35" fill="none" xmlns="http://www.w3.org/2000/svg">
<path d="M19.4997 34.1666C16.4997 34.1666 13.9441 33.111 11.833 30.9999C9.7219 28.8888 8.66634 26.3333 8.66634 23.3333V22.3749C6.27745 21.986 4.29134 20.868 2.70801 19.0208C1.12467 17.1735 0.333008 14.9999 0.333008 12.4999V2.49992H5.33301V0.833252H8.66634V7.49992H5.33301V5.83325H3.66634V12.4999C3.66634 14.3333 4.31912 15.9027 5.62467 17.2083C6.93023 18.5138 8.49967 19.1666 10.333 19.1666C12.1663 19.1666 13.7358 18.5138 15.0413 17.2083C16.3469 15.9027 16.9997 14.3333 16.9997 12.4999V5.83325H15.333V7.49992H11.9997V0.833252H15.333V2.49992H20.333V12.4999C20.333 14.9999 19.5413 17.1735 17.958 19.0208C16.3747 20.868 14.3886 21.986 11.9997 22.3749V23.3333C11.9997 25.4166 12.7288 27.1874 14.1872 28.6458C15.6455 30.1041 17.4163 30.8333 19.4997 30.8333C21.583 30.8333 23.3538 30.1041 24.8122 28.6458C26.2705 27.1874 26.9997 25.4166 26.9997 23.3333V20.5416C26.0275 20.2083 25.2288 19.611 24.6038 18.7499C23.9788 17.8888 23.6663 16.9166 23.6663 15.8333C23.6663 14.4444 24.1525 13.2638 25.1247 12.2916C26.0969 11.3194 27.2775 10.8333 28.6663 10.8333C30.0552 10.8333 31.2358 11.3194 32.208 12.2916C33.1802 13.2638 33.6663 14.4444 33.6663 15.8333C33.6663 16.9166 33.3538 17.8888 32.7288 18.7499C32.1038 19.611 31.3052 20.2083 30.333 20.5416V23.3333C30.333 26.3333 29.2775 28.8888 27.1663 30.9999C25.0552 33.111 22.4997 34.1666 19.4997 34.1666Z" fill="#65558F"/>
</svg>
