<svg width="49" height="48" viewBox="0 0 49 48" fill="none" xmlns="http://www.w3.org/2000/svg">
<mask id="mask0_527_61461" style="mask-type:alpha" maskUnits="userSpaceOnUse" x="0" y="0" width="49" height="48">
<rect x="0.333313" width="48" height="48" fill="#D9D9D9"/>
</mask>
<g mask="url(#mask0_527_61461)">
<path d="M22.2333 36.7L15.1333 29.6L18.0333 26.7L22.2333 30.9L30.6333 22.5L33.5333 25.4L22.2333 36.7ZM10.3333 44C9.23331 44 8.29165 43.6083 7.50831 42.825C6.72498 42.0417 6.33331 41.1 6.33331 40V12C6.33331 10.9 6.72498 9.95833 7.50831 9.175C8.29165 8.39167 9.23331 8 10.3333 8H12.3333V4H16.3333V8H32.3333V4H36.3333V8H38.3333C39.4333 8 40.375 8.39167 41.1583 9.175C41.9416 9.95833 42.3333 10.9 42.3333 12V40C42.3333 41.1 41.9416 42.0417 41.1583 42.825C40.375 43.6083 39.4333 44 38.3333 44H10.3333ZM10.3333 40H38.3333V20H10.3333V40Z" fill="#65558F"/>
</g>
</svg>
