<svg width="48" height="48" viewBox="0 0 48 48" fill="none" xmlns="http://www.w3.org/2000/svg">
<mask id="mask0_1064_2941" style="mask-type:alpha" maskUnits="userSpaceOnUse" x="0" y="0" width="48" height="48">
<rect width="48" height="48" fill="#D9D9D9"/>
</mask>
<g mask="url(#mask0_1064_2941)">
<path d="M18 36H30C30.5667 36 31.0417 35.8083 31.425 35.425C31.8083 35.0417 32 34.5667 32 34C32 33.4333 31.8083 32.9583 31.425 32.575C31.0417 32.1917 30.5667 32 30 32H18C17.4333 32 16.9583 32.1917 16.575 32.575C16.1917 32.9583 16 33.4333 16 34C16 34.5667 16.1917 35.0417 16.575 35.425C16.9583 35.8083 17.4333 36 18 36ZM18 28H30C30.5667 28 31.0417 27.8083 31.425 27.425C31.8083 27.0417 32 26.5667 32 26C32 25.4333 31.8083 24.9583 31.425 24.575C31.0417 24.1917 30.5667 24 30 24H18C17.4333 24 16.9583 24.1917 16.575 24.575C16.1917 24.9583 16 25.4333 16 26C16 26.5667 16.1917 27.0417 16.575 27.425C16.9583 27.8083 17.4333 28 18 28ZM12 44C10.9 44 9.95833 43.6083 9.175 42.825C8.39167 42.0417 8 41.1 8 40V8C8 6.9 8.39167 5.95833 9.175 5.175C9.95833 4.39167 10.9 4 12 4H26.35C26.8833 4 27.3917 4.1 27.875 4.3C28.3583 4.5 28.7833 4.78333 29.15 5.15L38.85 14.85C39.2167 15.2167 39.5 15.6417 39.7 16.125C39.9 16.6083 40 17.1167 40 17.65V40C40 41.1 39.6083 42.0417 38.825 42.825C38.0417 43.6083 37.1 44 36 44H12ZM26 16C26 16.5667 26.1917 17.0417 26.575 17.425C26.9583 17.8083 27.4333 18 28 18H36L26 8V16Z" fill="#65558F"/>
</g>
</svg>
