<svg width="44" height="38" viewBox="0 0 44 38" fill="none" xmlns="http://www.w3.org/2000/svg">
<path d="M4 38C2.9 38 1.95833 37.6083 1.175 36.825C0.391667 36.0417 0 35.1 0 34V8H4V34H38V38H4ZM12 30C10.9 30 9.95833 29.6083 9.175 28.825C8.39167 28.0417 8 27.1 8 26V4C8 2.9 8.39167 1.95833 9.175 1.175C9.95833 0.391667 10.9 0 12 0H22L26 4H40C41.1 4 42.0417 4.39167 42.825 5.175C43.6083 5.95833 44 6.9 44 8V26C44 27.1 43.6083 28.0417 42.825 28.825C42.0417 29.6083 41.1 30 40 30H12Z" fill="#65558F"/>
</svg>
