<svg width="86" height="28" viewBox="0 0 86 28" fill="none" xmlns="http://www.w3.org/2000/svg">
<path d="M6.88031 3.54638C6.88031 4.38638 6.63031 5.05638 6.13031 5.54638C5.57031 6.13638 4.84031 6.43638 3.93031 6.43638C3.06031 6.43638 2.32031 6.13638 1.72031 5.53638C1.12031 4.93638 0.820312 4.18638 0.820312 3.30638C0.820312 2.42638 1.12031 1.67638 1.72031 1.07638C2.32031 0.476382 3.06031 0.166382 3.93031 0.166382C4.37031 0.166382 4.79031 0.246381 5.18031 0.396381C5.57031 0.556381 5.89031 0.776381 6.14031 1.05638L5.59031 1.60638C5.41031 1.38638 5.17031 1.20638 4.87031 1.08638C4.5739 0.957414 4.25354 0.89266 3.93031 0.896381C3.28031 0.896381 2.72031 1.12638 2.27031 1.57638C1.82031 2.03638 1.60031 2.60638 1.60031 3.29638C1.60031 3.98638 1.82031 4.55638 2.27031 5.01638C2.72031 5.46638 3.27031 5.69638 3.93031 5.69638C4.53031 5.69638 5.02031 5.52638 5.42031 5.19638C5.82031 4.86638 6.05031 4.39638 6.11031 3.81638H3.93031V3.09638H6.84031C6.86031 3.25638 6.88031 3.40638 6.88031 3.54638ZM11.4903 0.306381V1.04638H8.76031V2.94638H11.2203V3.66638H8.76031V5.56638H11.4903V6.30638H7.99031V0.306381H11.4903ZM14.7403 1.04638V6.30638H13.9703V1.04638H12.2903V0.306381H16.4103V1.04638H14.7403ZM20.1703 6.30638H19.4003V0.306381H20.1703V6.30638ZM23.5903 1.04638V6.30638H22.8203V1.04638H21.1403V0.306381H25.2603V1.04638H23.5903ZM33.9503 3.30638C33.9503 4.19638 33.6503 4.93638 33.0603 5.53638C32.4603 6.13638 31.7303 6.43638 30.8603 6.43638C29.9903 6.43638 29.2603 6.13638 28.6603 5.53638C28.0703 4.93638 27.7703 4.19638 27.7703 3.30638C27.7703 2.41638 28.0703 1.67638 28.6603 1.07638C29.2503 0.476382 29.9803 0.166382 30.8603 0.166382C31.7303 0.166382 32.4603 0.466382 33.0603 1.07638C33.6603 1.68638 33.9503 2.42638 33.9503 3.30638ZM28.5703 3.30638C28.5703 3.99638 28.7903 4.57638 29.2203 5.02638C29.6603 5.47638 30.2103 5.70638 30.8603 5.70638C31.5103 5.70638 32.0603 5.47638 32.4903 5.02638C32.9303 4.57638 33.1503 4.00638 33.1503 3.30638C33.1503 2.60638 32.9303 2.03638 32.4903 1.58638C32.0503 1.13638 31.5103 0.906382 30.8603 0.906382C30.2103 0.906382 29.6603 1.13638 29.2203 1.58638C28.7903 2.03638 28.5703 2.61638 28.5703 3.30638ZM35.8003 6.30638H35.0303V0.306381H35.9703L38.8903 4.97638H38.9203L38.8903 3.81638V0.306381H39.6603V6.30638H38.8603L35.8103 1.41638H35.7803L35.8103 2.57638V6.30638H35.8003Z" fill="#65558F"/>
<path d="M27.6 15.0564C25.25 15.0564 23.33 16.8464 23.33 19.3064C23.33 21.7564 25.25 23.5564 27.6 23.5564C29.95 23.5564 31.87 21.7564 31.87 19.3064C31.87 16.8464 29.95 15.0564 27.6 15.0564ZM27.6 21.8864C26.31 21.8864 25.2 20.8264 25.2 19.3064C25.2 17.7764 26.31 16.7264 27.6 16.7264C28.89 16.7264 30 17.7764 30 19.3064C30 20.8264 28.88 21.8864 27.6 21.8864ZM18.28 15.0564C15.93 15.0564 14.01 16.8464 14.01 19.3064C14.01 21.7564 15.93 23.5564 18.28 23.5564C20.63 23.5564 22.55 21.7564 22.55 19.3064C22.55 16.8464 20.63 15.0564 18.28 15.0564ZM18.28 21.8864C16.99 21.8864 15.88 20.8264 15.88 19.3064C15.88 17.7764 16.99 16.7264 18.28 16.7264C19.57 16.7264 20.68 17.7764 20.68 19.3064C20.68 20.8264 19.57 21.8864 18.28 21.8864ZM7.2 16.3664V18.1664H11.52C11.39 19.1764 11.05 19.9264 10.54 20.4364C9.91 21.0664 8.93 21.7564 7.21 21.7564C4.55 21.7564 2.47 19.6164 2.47 16.9564C2.47 14.2964 4.55 12.1564 7.21 12.1564C8.64 12.1564 9.69 12.7164 10.46 13.4464L11.73 12.1764C10.65 11.1464 9.22 10.3564 7.2 10.3564C3.56 10.3564 0.5 13.3164 0.5 16.9664C0.5 20.6064 3.56 23.5764 7.2 23.5764C9.17 23.5764 10.65 22.9364 11.81 21.7264C13 20.5364 13.37 18.8564 13.37 17.5064C13.37 17.0864 13.34 16.6964 13.27 16.3764H7.2V16.3664ZM52.51 17.7664C52.16 16.8164 51.08 15.0564 48.87 15.0564C46.68 15.0564 44.86 16.7764 44.86 19.3064C44.86 21.6864 46.66 23.5564 49.08 23.5564C51.03 23.5564 52.16 22.3664 52.62 21.6764L51.17 20.7064C50.69 21.4164 50.03 21.8864 49.08 21.8864C48.13 21.8864 47.45 21.4564 47.02 20.5964L52.71 18.2464L52.51 17.7664ZM46.71 19.1864C46.66 17.5464 47.98 16.7064 48.93 16.7064C49.67 16.7064 50.3 17.0764 50.51 17.6064L46.71 19.1864ZM42.09 23.3064H43.96V10.8064H42.09V23.3064ZM39.03 16.0064H38.96C38.54 15.5064 37.74 15.0564 36.72 15.0564C34.59 15.0564 32.64 16.9264 32.64 19.3264C32.64 21.7064 34.59 23.5664 36.72 23.5664C37.73 23.5664 38.54 23.1164 38.96 22.5964H39.02V23.2064C39.02 24.8364 38.15 25.7064 36.75 25.7064C35.61 25.7064 34.9 24.8864 34.61 24.1964L32.98 24.8764C33.45 26.0064 34.69 27.3864 36.75 27.3864C38.94 27.3864 40.79 26.0964 40.79 22.9564V15.3164H39.02V16.0064H39.03ZM36.88 21.8864C35.59 21.8864 34.51 20.8064 34.51 19.3264C34.51 17.8264 35.59 16.7364 36.88 16.7364C38.15 16.7364 39.15 17.8364 39.15 19.3264C39.16 20.8064 38.16 21.8864 36.88 21.8864ZM61.27 10.8064H56.8V23.3064H58.67V18.5664H61.28C63.35 18.5664 65.38 17.0664 65.38 14.6864C65.37 12.3064 63.33 10.8064 61.27 10.8064ZM61.31 16.8264H58.66V12.5364H61.31C62.71 12.5364 63.5 13.6964 63.5 14.6764C63.5 15.6564 62.71 16.8264 61.31 16.8264ZM72.85 15.0364C71.5 15.0364 70.1 15.6364 69.52 16.9464L71.18 17.6364C71.53 16.9464 72.19 16.7164 72.88 16.7164C73.84 16.7164 74.83 17.2964 74.84 18.3264V18.4564C74.5 18.2664 73.78 17.9764 72.89 17.9764C71.1 17.9764 69.29 18.9564 69.29 20.7864C69.29 22.4564 70.75 23.5364 72.39 23.5364C73.64 23.5364 74.34 22.9764 74.77 22.3164H74.83V23.2764H76.63V18.4864C76.64 16.2764 74.98 15.0364 72.85 15.0364ZM72.62 21.8864C72.01 21.8864 71.16 21.5764 71.16 20.8264C71.16 19.8664 72.22 19.4964 73.14 19.4964C73.96 19.4964 74.35 19.6764 74.84 19.9164C74.7706 20.4577 74.5075 20.9555 74.0994 21.3177C73.6912 21.6799 73.1657 21.8819 72.62 21.8864ZM83.2 15.3064L81.06 20.7264H81L78.78 15.3064H76.77L80.1 22.8864L78.2 27.0964H80.15L85.28 15.3064H83.2ZM66.4 23.3064H68.27V10.8064H66.4V23.3064Z" fill="#65558F"/>
</svg>
