<svg width="136" height="40" viewBox="0 0 136 40" fill="none" xmlns="http://www.w3.org/2000/svg">
<path d="M130.73 0.8C131.844 0.8 132.913 1.2425 133.7 2.03015C134.488 2.8178 134.93 3.88609 134.93 5V35C134.93 36.1139 134.488 37.1822 133.7 37.9698C132.913 38.7575 131.844 39.2 130.73 39.2H5.73047C4.61656 39.2 3.54827 38.7575 2.76062 37.9698C1.97297 37.1822 1.53047 36.1139 1.53047 35V5C1.53047 3.88609 1.97297 2.8178 2.76062 2.03015C3.54827 1.2425 4.61656 0.8 5.73047 0.8H130.73ZM130.73 0H5.73047C2.98047 0 0.730469 2.25 0.730469 5V35C0.730469 37.75 2.98047 40 5.73047 40H130.73C133.48 40 135.73 37.75 135.73 35V5C135.73 2.25 133.48 0 130.73 0Z" fill="#79747E"/>
</svg>
