<svg width="30" height="33" viewBox="0 0 30 33" fill="none" xmlns="http://www.w3.org/2000/svg">
<path d="M4.00008 26.8334C3.08342 26.8334 2.29869 26.507 1.64591 25.8542C0.993137 25.2015 0.666748 24.4167 0.666748 23.5001V22.1667C0.666748 21.2223 0.909804 20.3542 1.39591 19.5626C1.88203 18.7709 2.52786 18.1667 3.33341 17.7501C5.05564 16.889 6.80564 16.2431 8.58342 15.8126C10.3612 15.382 12.1667 15.1667 14.0001 15.1667C14.3056 15.1667 14.6042 15.1737 14.8959 15.1876C15.1876 15.2015 15.4862 15.2223 15.7917 15.2501C16.2362 15.3056 16.6042 15.4931 16.8959 15.8126C17.1876 16.132 17.3334 16.514 17.3334 16.9584V25.1667C17.3334 25.639 17.1737 26.0348 16.8542 26.3542C16.5348 26.6737 16.139 26.8334 15.6667 26.8334H4.00008ZM14.0001 13.5001C12.1667 13.5001 10.5973 12.8473 9.29175 11.5417C7.98619 10.2362 7.33342 8.66675 7.33342 6.83341C7.33342 5.00008 7.98619 3.43064 9.29175 2.12508C10.5973 0.819526 12.1667 0.166748 14.0001 0.166748C15.8334 0.166748 17.4029 0.819526 18.7084 2.12508C20.014 3.43064 20.6667 5.00008 20.6667 6.83341C20.6667 8.66675 20.014 10.2362 18.7084 11.5417C17.4029 12.8473 15.8334 13.5001 14.0001 13.5001ZM24.0001 25.1667H22.3334C21.8612 25.1667 21.4654 25.007 21.1459 24.6876C20.8265 24.3681 20.6667 23.9723 20.6667 23.5001V16.8334C20.6667 16.3612 20.8265 15.9654 21.1459 15.6459C21.4654 15.3265 21.8612 15.1667 22.3334 15.1667H28.6251C29.0973 15.1667 29.4584 15.3612 29.7084 15.7501C29.9584 16.139 29.9723 16.5417 29.7501 16.9584L27.3334 21.8334H28.5001C28.9723 21.8334 29.3265 22.0417 29.5626 22.4584C29.7987 22.8751 29.8056 23.2917 29.5834 23.7084L24.7917 32.1251C24.6806 32.3195 24.5209 32.389 24.3126 32.3334C24.1042 32.2779 24.0001 32.139 24.0001 31.9167V25.1667Z" fill="#65558F"/>
</svg>
