<svg width="48" height="48" viewBox="0 0 48 48" fill="none" xmlns="http://www.w3.org/2000/svg">
<mask id="mask0_1064_2946" style="mask-type:alpha" maskUnits="userSpaceOnUse" x="0" y="0" width="48" height="48">
<rect width="48" height="48" fill="#D9D9D9"/>
</mask>
<g mask="url(#mask0_1064_2946)">
<path d="M10 42V38H20V34C17.2333 34 14.875 33.025 12.925 31.075C10.975 29.125 10 26.7667 10 24C10 22.1 10.4833 20.35 11.45 18.75C12.4167 17.15 13.75 15.9333 15.45 15.1C15.3167 15.8333 15.3417 16.55 15.525 17.25C15.7083 17.95 16 18.6167 16.4 19.25C15.6333 19.7833 15.0417 20.4667 14.625 21.3C14.2083 22.1333 14 23.0333 14 24C14 25.6667 14.5833 27.0833 15.75 28.25C16.9167 29.4167 18.3333 30 20 30H36V34H26V38H38V42H10ZM28 24.2L27.4 22.3L25.5 23L24.5 20.35C25.1667 19.8167 25.6833 19.175 26.05 18.425C26.4167 17.675 26.6 16.8667 26.6 16C26.6 14.4333 26.05 13.1083 24.95 12.025C23.85 10.9417 22.5 10.4 20.9 10.4L20 7.9L21.9 7.2L21.2 5.4L25 4L25.6 5.9L27.5 5.2L33 20.2L31.1 20.9L31.8 22.8L28 24.2ZM21 19.6C20 19.6 19.15 19.25 18.45 18.55C17.75 17.85 17.4 17 17.4 16C17.4 15 17.75 14.15 18.45 13.45C19.15 12.75 20 12.4 21 12.4C22 12.4 22.85 12.75 23.55 13.45C24.25 14.15 24.6 15 24.6 16C24.6 17 24.25 17.85 23.55 18.55C22.85 19.25 22 19.6 21 19.6Z" fill="#65558F"/>
</g>
</svg>
