<svg width="264" height="80" viewBox="0 0 264 80" fill="none" xmlns="http://www.w3.org/2000/svg">
<g clip-path="url(#clip0_638_26196)">
<path d="M79.0581 43.4116H73.2325V28.606L66.6647 39.3995H66.01L59.4422 28.606V43.4116H53.6201V17.9736H59.4422L66.3286 29.2642L73.2325 17.9736H79.0581V43.4116Z" fill="#65558F"/>
<path d="M85.5876 40.1105C84.3283 38.8909 83.3345 37.4242 82.6688 35.8024C82.0031 34.1805 81.6798 32.4386 81.7191 30.686C81.6794 28.9353 82.0026 27.1954 82.6684 25.5758C83.3342 23.9562 84.3281 22.492 85.5876 21.2754C88.0835 18.8295 91.4389 17.4595 94.9334 17.4595C98.428 17.4595 101.783 18.8295 104.279 21.2754C106.873 23.8066 108.179 26.9574 108.179 30.686C108.179 34.4145 106.884 37.5723 104.29 40.1105C101.789 42.5465 98.4353 43.9097 94.9439 43.9097C91.4526 43.9097 88.0992 42.5465 85.5981 40.1105H85.5876ZM100.197 36.1684C101.636 34.7681 102.347 32.9581 102.347 30.686C102.347 28.4138 101.647 26.5828 100.197 25.2C98.77 23.864 96.8883 23.1207 94.9334 23.1207C92.9786 23.1207 91.0969 23.864 89.6698 25.2C88.2344 26.6003 87.5237 28.4138 87.5237 30.686C87.5237 32.9581 88.2239 34.7856 89.6698 36.1684C91.0969 37.5044 92.9786 38.2477 94.9334 38.2477C96.8883 38.2477 98.77 37.5044 100.197 36.1684Z" fill="#65558F"/>
<path d="M130.816 43.4116H126.45L116.648 29.6178V43.4116H110.829V17.9736H115.181L124.983 31.7674V17.9736H130.806L130.816 43.4116Z" fill="#65558F"/>
<path d="M158.243 43.4118H152.418V23.5649H145.885V17.9634H164.772V23.5649H158.243V43.4118Z" fill="#65558F"/>
<path d="M167.577 40.1104C166.318 38.8907 165.324 37.424 164.658 35.8022C163.992 34.1804 163.669 32.4385 163.708 30.6858C163.669 28.9351 163.992 27.1952 164.658 25.5756C165.323 23.956 166.317 22.4918 167.577 21.2752C170.073 18.8291 173.429 17.459 176.924 17.459C180.42 17.459 183.776 18.8291 186.272 21.2752C188.863 23.8134 190.158 26.9398 190.158 30.6858C190.158 34.4318 188.863 37.5722 186.272 40.1104C183.77 42.5458 180.416 43.9085 176.924 43.9085C173.433 43.9085 170.079 42.5458 167.577 40.1104ZM182.186 36.1683C183.625 34.7679 184.336 32.9579 184.336 30.6858C184.336 28.4137 183.636 26.5827 182.186 25.1998C180.759 23.8648 178.878 23.1221 176.924 23.1221C174.97 23.1221 173.089 23.8648 171.663 25.1998C170.224 26.6002 169.513 28.4137 169.513 30.6858C169.513 32.9579 170.213 34.7854 171.663 36.1683C173.089 37.5032 174.97 38.2459 176.924 38.2459C178.878 38.2459 180.759 37.5032 182.186 36.1683Z" fill="#65558F"/>
<path d="M195.623 41.6016C193.761 40.0577 192.822 37.9081 192.822 35.1948V17.9736H198.644V34.6767C198.644 37.0573 199.976 38.2477 202.639 38.2477C205.302 38.2477 206.634 37.0573 206.634 34.6767V17.9736H212.438V35.1948C212.438 40.6423 209.171 43.5469 202.635 43.9087C199.831 43.9087 197.489 43.1455 195.623 41.6016Z" fill="#65558F"/>
<path d="M215.095 43.4644V18.0265H225.055C227.121 17.9709 229.135 18.6789 230.712 20.015C231.483 20.6552 232.096 21.4632 232.506 22.3771C232.915 23.291 233.11 24.2866 233.076 25.2875C233.076 27.388 232.33 29.051 230.856 30.2763C232.932 31.5192 233.979 33.4272 233.979 36.0109C233.979 38.2655 233.181 40.058 231.567 41.4234C229.949 42.7952 227.882 43.522 225.762 43.4644H215.095ZM225.055 27.9867C226.35 27.9867 227.096 27.241 227.254 25.7321C227.254 24.4192 226.529 23.6735 225.055 23.4775H220.91V27.9867H225.055ZM225.755 38.0169C227.209 38.0169 228.013 37.2 228.167 35.5663C228.167 34.1659 227.369 33.3467 225.755 33.1156H220.91V38.0169H225.755Z" fill="#65558F"/>
<path d="M242.448 43.4643H236.644V18.0264H242.448V43.4643Z" fill="#65558F"/>
<path d="M245.112 43.4644V18.0264H255.069C257.137 17.9714 259.154 18.6792 260.734 20.015C261.503 20.6553 262.116 21.4634 262.525 22.3774C262.934 23.2913 263.129 24.2867 263.093 25.2874C263.093 27.388 262.348 29.0509 260.874 30.2763C262.953 31.5191 264 33.4271 264 36.0108C264 38.2654 263.202 40.0579 261.584 41.4233C259.967 42.7955 257.9 43.5223 255.78 43.4644H245.112ZM255.069 27.9866C256.364 27.9866 257.11 27.2409 257.271 25.732C257.271 24.4192 256.543 23.6735 255.069 23.4774H250.917V27.9866H255.069ZM255.769 38.0169C257.226 38.0169 258.024 37.1976 258.185 35.5662C258.185 34.1658 257.387 33.3466 255.769 33.1155H250.917V38.0169H255.769Z" fill="#65558F"/>
<path d="M91.2982 61.4977H89.0471V57.5871H85.9488V61.4977H83.7012V51.646H85.9488V55.4165H89.0471V51.646H91.2982V61.4977Z" fill="#65558F"/>
<path d="M97.1026 61.4979C96.468 61.5153 95.8368 61.3996 95.2495 61.1584C94.6623 60.9173 94.132 60.5559 93.6927 60.0976C92.8126 59.1406 92.3242 57.8879 92.3242 56.5879C92.3242 55.2878 92.8126 54.0351 93.6927 53.0781C94.1326 52.6207 94.663 52.2599 95.2501 52.0188C95.8372 51.7777 96.4681 51.6615 97.1026 51.6778H101.045V53.8449H97.1026C96.5669 53.8177 96.037 53.967 95.5944 54.2699C95.1517 54.5728 94.8206 55.0126 94.6519 55.5218H99.9734L98.8041 57.6889H94.6554C94.8253 58.1968 95.1569 58.6351 95.5995 58.9366C96.0421 59.2382 96.5713 59.3865 97.1061 59.3589H101.048V61.5295L97.1026 61.4979Z" fill="#65558F"/>
<path d="M111.642 61.4977H109.191L105.378 58.893L104.552 61.4977H102.084L105.441 51.646H108.305L111.642 61.4977ZM108.067 58.0142L106.856 54.2262L106.079 56.6769L108.067 58.0142Z" fill="#65558F"/>
<path d="M118.437 61.4732H112.667V51.625H114.918V59.3061H118.437V61.4732Z" fill="#65558F"/>
<path d="M124.253 61.4732H121.998V53.7921H119.467V51.625H126.784V53.7921H124.253V61.4732Z" fill="#65558F"/>
<path d="M135.407 61.4977H133.159V57.5871H130.057V61.4977H127.81V51.646H130.057V55.4165H133.159V51.646H135.407V61.4977Z" fill="#65558F"/>
<path d="M141.222 61.4979C140.587 61.5153 139.956 61.3996 139.368 61.1584C138.781 60.9173 138.251 60.5559 137.812 60.0976C136.927 59.1429 136.436 57.8894 136.436 56.5879C136.436 55.2863 136.927 54.0328 137.812 53.0781C138.252 52.6207 138.782 52.2599 139.369 52.0188C139.956 51.7777 140.587 51.6615 141.222 51.6778H145.16V53.8449H141.222C139.473 53.9942 138.6 54.9126 138.603 56.6001C138.804 58.4393 139.676 59.3589 141.222 59.3589H145.16V61.5295L141.222 61.4979Z" fill="#65558F"/>
<path d="M155.757 61.4977H153.307L149.491 58.893L148.664 61.4977H146.196L149.55 51.646H152.417L155.757 61.4977ZM152.183 58.0142L150.975 54.2262L150.198 56.6769L152.183 58.0142Z" fill="#65558F"/>
<path d="M164.383 61.4729H161.964L160.102 58.2415H159.051V61.4729H156.797V56.2669H158.978L156.786 52.5139V51.6177H160.725C161.62 51.6186 162.479 51.975 163.111 52.6084C163.744 53.2419 164.1 54.1007 164.1 54.9961C164.1 56.1969 163.497 57.1527 162.293 57.8494L164.383 61.4729ZM161.281 56.1024C161.464 55.9848 161.613 55.8215 161.713 55.6287C161.813 55.4358 161.861 55.2202 161.852 55.0031C161.862 54.6709 161.744 54.3476 161.523 54.0999C161.423 53.9878 161.3 53.8985 161.162 53.8381C161.024 53.7777 160.875 53.7476 160.725 53.7498H159.916L161.281 56.1024Z" fill="#65558F"/>
<path d="M169.365 61.4979C168.731 61.5153 168.099 61.3996 167.512 61.1584C166.925 60.9173 166.395 60.5559 165.955 60.0976C165.075 59.1406 164.587 57.8879 164.587 56.5879C164.587 55.2878 165.075 54.0351 165.955 53.0781C166.395 52.6207 166.926 52.2599 167.513 52.0188C168.1 51.7777 168.731 51.6615 169.365 51.6778H173.297V53.8449H169.365C168.83 53.8177 168.3 53.967 167.857 54.2699C167.414 54.5728 167.083 55.0126 166.915 55.5218H172.247L171.077 57.6889H166.918C167.088 58.1968 167.42 58.6351 167.862 58.9366C168.305 59.2382 168.834 59.3865 169.369 59.3589H173.297V61.5295L169.365 61.4979Z" fill="#65558F"/>
<path d="M37.9962 8.94824H10.8148C10.4736 8.94823 10.1357 9.01573 9.82066 9.14684C9.50562 9.27796 9.21963 9.47009 8.97916 9.7122C8.73868 9.9543 8.54848 10.2416 8.41949 10.5575C8.29051 10.8734 8.22529 11.2117 8.2276 11.553V27.5628C8.44466 28.0915 8.66522 28.6131 8.87878 29.1383C9.15185 29.7929 9.42493 30.4476 9.698 31.1093V14.9804C9.698 14.752 9.78874 14.5329 9.95025 14.3714C10.1118 14.2099 10.3308 14.1192 10.5592 14.1192H38.2483C38.477 14.1192 38.6964 14.2098 38.8585 14.3712C39.0206 14.5326 39.1121 14.7517 39.113 14.9804V31.1583L40.5869 27.6048V11.5319C40.5851 10.8461 40.3113 10.1889 39.8256 9.70457C39.34 9.22023 38.6821 8.94824 37.9962 8.94824ZM30.4972 11.9906C30.4344 12.0537 30.3596 12.1035 30.2772 12.1372C30.1948 12.1709 30.1065 12.1877 30.0175 12.1866H18.7935C18.7043 12.1896 18.6154 12.175 18.5318 12.1436C18.4483 12.1123 18.3717 12.0647 18.3066 12.0038C18.2414 11.9428 18.1888 11.8696 18.1519 11.7884C18.1151 11.7071 18.0945 11.6194 18.0915 11.5302C18.0885 11.441 18.1032 11.3521 18.1345 11.2686C18.1659 11.185 18.2134 11.1085 18.2744 11.0433C18.3353 10.9781 18.4085 10.9256 18.4898 10.8887C18.571 10.8518 18.6588 10.8312 18.748 10.8283H30.0175C30.1085 10.8282 30.1986 10.8465 30.2824 10.8819C30.3662 10.9173 30.442 10.9692 30.5054 11.0346C30.5687 11.0999 30.6183 11.1772 30.6512 11.2621C30.6841 11.3469 30.6995 11.4375 30.6967 11.5284C30.6898 11.7019 30.6187 11.8666 30.4972 11.9906Z" fill="#65558F"/>
<path d="M39.113 48.1871V58.963C39.113 59.1914 39.0222 59.4105 38.8607 59.572C38.6992 59.7335 38.4801 59.8242 38.2517 59.8242H10.5592C10.3308 59.8242 10.1117 59.7335 9.95019 59.572C9.78868 59.4105 9.69794 59.1914 9.69794 58.963V48.075C9.41086 47.5254 9.13779 46.9792 8.87171 46.4331C8.64765 45.971 8.43059 45.5018 8.22754 45.0327V64.2109C8.22847 64.8968 8.50134 65.5544 8.98634 66.0393C9.47133 66.5243 10.1289 66.7972 10.8147 66.7981H37.9962C38.6826 66.7981 39.3411 66.5257 39.8268 66.0406C40.3126 65.5555 40.5859 64.8974 40.5869 64.2109V45.0572C40.1177 46.16 39.6311 47.1998 39.113 48.1871ZM26.9997 64.4175C26.9997 64.6459 26.9089 64.865 26.7474 65.0265C26.5859 65.188 26.3668 65.2787 26.1384 65.2787H22.6725C22.4441 65.2787 22.225 65.188 22.0635 65.0265C21.902 64.865 21.8112 64.6459 21.8112 64.4175V62.3169C21.8112 62.0885 21.902 61.8695 22.0635 61.7079C22.225 61.5464 22.4441 61.4557 22.6725 61.4557H26.1384C26.3668 61.4557 26.5859 61.5464 26.7474 61.7079C26.9089 61.8695 26.9997 62.0885 26.9997 62.3169V64.4175Z" fill="#65558F"/>
<path d="M47.3047 20.2635C45.0326 26.8768 42.89 33.5391 40.5864 40.1489L40.0892 41.5493C39.7835 42.4082 39.4579 43.2566 39.1125 44.0945C37.4775 48.0331 35.3209 51.6951 32.1771 54.7304C30.4266 56.4004 28.438 57.6397 26.0294 58.0913C25.4698 58.1992 24.9013 58.2531 24.3314 58.2524C21.9543 58.2524 19.8432 57.2861 17.8967 55.8017C14.4377 53.148 12.2951 49.5 10.4291 45.6735C10.1736 45.1448 9.9285 44.6232 9.70093 44.084C9.15478 42.8307 8.67865 41.5633 8.23053 40.2785C7.42181 37.9819 6.70762 35.6502 5.9164 33.3501C4.22894 28.4698 2.6115 23.5474 0.955549 18.6671C0.367388 16.9271 -0.0317206 15.1486 -0.00021198 13.6747C-0.073732 7.95767 2.66401 4.20115 7.78941 2.64672C8.75217 2.35964 9.41386 1.75048 10.093 1.12031C10.7722 0.490134 11.5529 0 12.4667 0C12.5767 2.52406e-05 12.6866 0.00704128 12.7958 0.0210057C13.3606 0.0537221 13.901 0.262889 14.3407 0.619021C14.7803 0.975154 15.0971 1.46029 15.2464 2.00605C15.4369 2.5361 15.4611 3.11161 15.316 3.65581C15.1709 4.2 14.8633 4.68702 14.4342 5.05188C13.9361 5.50433 13.2867 5.75409 12.6137 5.75207C12.168 5.7445 11.7276 5.65428 11.3149 5.486C11.1824 5.43 11.0548 5.36326 10.9333 5.28644C9.75345 4.58625 8.90272 4.20815 8.08349 4.20815C7.18375 4.20815 6.33302 4.65277 5.11118 5.57702C1.99883 7.94717 1.20762 11.2031 1.61373 14.8966C1.83429 16.9236 2.68502 18.7476 3.46223 20.5996C5.05867 24.4203 6.64693 28.241 8.22703 32.0617C8.71483 33.2427 9.20497 34.4237 9.69743 35.6047C10.715 38.0554 11.742 40.506 12.7783 42.9567C14.3677 46.7167 16.3773 50.2317 19.5386 52.9484C21.1386 54.3243 22.77 55.0105 24.4049 55.0105C26.0399 55.0105 27.6573 54.3278 29.2328 52.9694C32.5727 50.1127 34.6067 46.3631 36.2767 42.4036C37.2103 40.149 38.1555 37.8932 39.1125 35.6362L40.5864 32.1038C42.4769 27.5595 44.3546 23.0083 46.2194 18.45C47.6198 14.9806 47.8683 11.4761 45.9533 8.0697C45.2798 6.91977 44.3351 5.95219 43.2016 5.25143C42.2563 4.63877 41.3321 4.22915 40.4008 4.22915C39.5067 4.253 38.6517 4.60144 37.9957 5.20942C37.5265 5.60068 36.9331 5.81172 36.3222 5.80458C35.6935 5.80473 35.0809 5.60623 34.5717 5.23743C34.0997 4.87023 33.7477 4.37078 33.5607 3.80276C33.3736 3.23473 33.36 2.62387 33.5214 2.04806C33.6967 1.51515 34.0204 1.04332 34.4545 0.687975C34.8886 0.332633 35.4151 0.108539 35.9721 0.0420115C36.0876 0.0420115 36.2067 0.0420115 36.3222 0.0420115C36.7489 0.0476847 37.17 0.139981 37.56 0.313301C37.95 0.486621 38.3007 0.737352 38.5908 1.05029C39.5073 1.95973 40.6472 2.61177 41.8957 2.9408C45.6942 4.0366 48.4845 7.84214 48.7751 11.9803C48.9817 14.8686 48.2359 17.5608 47.3047 20.2635Z" fill="#65558F"/>
<path d="M75.4349 54.4047C74.8755 54.4035 74.3224 54.5215 73.8123 54.7509C73.3022 54.9803 72.8468 55.3158 72.4766 55.7351C71.4901 55.4252 70.4777 55.2049 69.4517 55.0769L69.3852 55.504C67.6892 55.2893 65.9689 55.3651 64.2983 55.7281C61.319 56.3862 59.1414 57.8952 57.4085 59.2885C53.1373 62.709 51.1523 65.9018 49.3983 68.7131C47.6443 71.5244 46.1389 73.9645 42.6904 75.9216C41.3251 76.6988 38.4893 78.3197 34.8623 77.8681C30.2866 77.3045 27.6748 73.87 27.3948 73.4814C26.3433 72.0148 25.6677 70.3126 25.4272 68.5241H23.6768C23.9244 70.6784 24.7172 72.734 25.9804 74.4967C26.3095 74.9448 29.3413 78.9254 34.6347 79.5836C35.1156 79.6425 35.5997 79.6717 36.0841 79.6711C39.5851 79.6711 42.2913 78.1272 43.5307 77.4165C47.3572 75.2319 49.0552 72.5151 50.8512 69.6234C52.5281 66.9241 54.4326 63.8713 58.4762 60.6294C60.7414 58.8124 62.5339 57.8777 64.6554 57.4085C66.1191 57.0911 67.6257 57.0224 69.1121 57.2055L69.0596 57.5556V57.6186C69.8783 57.7174 70.6875 57.8837 71.4788 58.1157C71.4788 58.1927 71.4788 58.2733 71.4788 58.3503C71.4788 59.1341 71.7112 59.9003 72.1467 60.5521C72.5822 61.2038 73.2011 61.7117 73.9253 62.0117C74.6494 62.3116 75.4463 62.3901 76.215 62.2372C76.9838 62.0843 77.6899 61.7069 78.2442 61.1526C78.7984 60.5984 79.1759 59.8922 79.3288 59.1234C79.4817 58.3547 79.4032 57.5578 79.1033 56.8337C78.8033 56.1095 78.2954 55.4906 77.6436 55.0551C76.9919 54.6196 76.2257 54.3872 75.4419 54.3872L75.4349 54.4047ZM75.4349 60.3563C75.043 60.3563 74.6598 60.2401 74.334 60.0224C74.0081 59.8046 73.7541 59.4952 73.6042 59.1331C73.4542 58.771 73.4149 58.3726 73.4914 57.9882C73.5679 57.6038 73.7566 57.2508 74.0337 56.9736C74.3108 56.6965 74.6639 56.5078 75.0483 56.4313C75.4327 56.3549 75.8311 56.3941 76.1932 56.5441C76.5552 56.6941 76.8647 56.948 77.0825 57.2739C77.3002 57.5998 77.4164 57.9829 77.4164 58.3748C77.4155 58.8994 77.2069 59.4024 76.8363 59.7737C76.4656 60.145 75.963 60.3545 75.4384 60.3563H75.4349Z" fill="#65558F"/>
</g>
<defs>
<clipPath id="clip0_638_26196">
<rect width="264" height="79.6712" fill="white"/>
</clipPath>
</defs>
</svg>
