<svg width="41" height="40" viewBox="0 0 41 40" fill="none" xmlns="http://www.w3.org/2000/svg">
<path d="M22.3333 19.2V12C22.3333 11.4333 22.1416 10.9583 21.7583 10.575C21.375 10.1917 20.9 10 20.3333 10C19.7666 10 19.2916 10.1917 18.9083 10.575C18.525 10.9583 18.3333 11.4333 18.3333 12V19.95C18.3333 20.2167 18.3833 20.475 18.4833 20.725C18.5833 20.975 18.7333 21.2 18.9333 21.4L25.5333 28C25.9 28.3667 26.3666 28.55 26.9333 28.55C27.5 28.55 27.9666 28.3667 28.3333 28C28.7 27.6333 28.8833 27.1667 28.8833 26.6C28.8833 26.0333 28.7 25.5667 28.3333 25.2L22.3333 19.2ZM20.3333 40C17.5666 40 14.9666 39.475 12.5333 38.425C10.1 37.375 7.98331 35.95 6.18331 34.15C4.38331 32.35 2.95831 30.2333 1.90831 27.8C0.858313 25.3667 0.333313 22.7667 0.333313 20C0.333313 17.2333 0.858313 14.6333 1.90831 12.2C2.95831 9.76667 4.38331 7.65 6.18331 5.85C7.98331 4.05 10.1 2.625 12.5333 1.575C14.9666 0.525 17.5666 0 20.3333 0C23.1 0 25.7 0.525 28.1333 1.575C30.5666 2.625 32.6833 4.05 34.4833 5.85C36.2833 7.65 37.7083 9.76667 38.7583 12.2C39.8083 14.6333 40.3333 17.2333 40.3333 20C40.3333 22.7667 39.8083 25.3667 38.7583 27.8C37.7083 30.2333 36.2833 32.35 34.4833 34.15C32.6833 35.95 30.5666 37.375 28.1333 38.425C25.7 39.475 23.1 40 20.3333 40Z" fill="#65558F"/>
</svg>
