<svg width="107" height="32" viewBox="0 0 107 32" fill="none" xmlns="http://www.w3.org/2000/svg">
<g clip-path="url(#clip0_1844_22886)">
<path d="M31.7543 17.4359H29.4144V11.4893L26.7765 15.8245H26.5135L23.8756 11.4893V17.4359H21.5371V7.21875H23.8756L26.6415 11.7536L29.4144 7.21875H31.7543V17.4359Z" fill="#fdf7ff"/>
<path d="M34.3754 16.1105C33.8696 15.6206 33.4705 15.0315 33.2031 14.3801C32.9357 13.7287 32.8058 13.0291 32.8216 12.3251C32.8057 11.622 32.9355 10.9231 33.2029 10.2726C33.4703 9.6221 33.8696 9.034 34.3754 8.54536C35.3779 7.56295 36.7256 7.0127 38.1292 7.0127C39.5328 7.0127 40.8804 7.56295 41.8829 8.54536C42.9249 9.56202 43.4494 10.8276 43.4494 12.3251C43.4494 13.8227 42.9291 15.091 41.8871 16.1105C40.8826 17.0889 39.5357 17.6365 38.1334 17.6365C36.7311 17.6365 35.3842 17.0889 34.3796 16.1105H34.3754ZM40.2433 14.5272C40.8213 13.9647 41.1067 13.2377 41.1067 12.3251C41.1067 11.4125 40.8255 10.6771 40.2433 10.1217C39.6701 9.58508 38.9143 9.28652 38.1292 9.28652C37.344 9.28652 36.5882 9.58508 36.015 10.1217C35.4385 10.6841 35.153 11.4125 35.153 12.3251C35.153 13.2377 35.4343 13.9717 36.015 14.5272C36.5882 15.0638 37.344 15.3623 38.1292 15.3623C38.9143 15.3623 39.6701 15.0638 40.2433 14.5272Z" fill="#fdf7ff"/>
<path d="M52.5414 17.4359H50.788L46.8507 11.8956V17.4359H44.5137V7.21875H46.2615L50.1988 12.759V7.21875H52.5372L52.5414 17.4359Z" fill="#fdf7ff"/>
<path d="M63.5575 17.4362H61.2176V9.4647H58.5938V7.21484H66.18V9.4647H63.5575V17.4362Z" fill="#fdf7ff"/>
<path d="M67.3071 16.1106C66.8012 15.6208 66.4021 15.0317 66.1347 14.3803C65.8673 13.7289 65.7375 13.0292 65.7533 12.3252C65.7373 11.6221 65.8671 10.9233 66.1346 10.2727C66.402 9.62222 66.8012 9.03413 67.3071 8.54549C68.3098 7.56299 69.6577 7.0127 71.0615 7.0127C72.4654 7.0127 73.8133 7.56299 74.816 8.54549C75.8565 9.56495 76.3768 10.8207 76.3768 12.3252C76.3768 13.8298 75.8565 15.0912 74.816 16.1106C73.811 17.0888 72.4639 17.6362 71.0615 17.6362C69.6591 17.6362 68.312 17.0888 67.3071 16.1106ZM73.175 14.5273C73.7529 13.9648 74.0384 13.2378 74.0384 12.3252C74.0384 11.4127 73.7571 10.6772 73.175 10.1218C72.6019 9.58561 71.8464 9.2873 71.0615 9.2873C70.2767 9.2873 69.5212 9.58561 68.9481 10.1218C68.3701 10.6843 68.0847 11.4127 68.0847 12.3252C68.0847 13.2378 68.3659 13.9719 68.9481 14.5273C69.5212 15.0635 70.2767 15.3618 71.0615 15.3618C71.8464 15.3618 72.6019 15.0635 73.175 14.5273Z" fill="#fdf7ff"/>
<path d="M78.5722 16.7089C77.8241 16.0888 77.4473 15.2254 77.4473 14.1357V7.21875H79.7857V13.9275C79.7857 14.8837 80.3205 15.3618 81.3901 15.3618C82.4598 15.3618 82.9946 14.8837 82.9946 13.9275V7.21875H85.326V14.1357C85.326 16.3236 84.0136 17.4903 81.3887 17.6356C80.2624 17.6356 79.3217 17.329 78.5722 16.7089Z" fill="#fdf7ff"/>
<path d="M86.3926 17.4576V7.24048H90.3931C91.223 7.21815 92.032 7.50251 92.6655 8.03918C92.9748 8.2963 93.2212 8.62084 93.3857 8.98791C93.5502 9.35498 93.6285 9.75484 93.6146 10.1569C93.6146 11.0006 93.3151 11.6685 92.7231 12.1606C93.557 12.6598 93.9774 13.4262 93.9774 14.4639C93.9774 15.3695 93.6568 16.0894 93.0086 16.6379C92.3589 17.1889 91.5287 17.4808 90.6771 17.4576H86.3926ZM90.3931 11.241C90.9134 11.241 91.2129 10.9415 91.2762 10.3354C91.2762 9.80813 90.9851 9.50862 90.3931 9.42987H88.7282V11.241H90.3931ZM90.6743 15.2697C91.2584 15.2697 91.5813 14.9416 91.6432 14.2853C91.6432 13.7229 91.3226 13.3938 90.6743 13.301H88.7282V15.2697H90.6743Z" fill="#fdf7ff"/>
<path d="M97.3783 17.4574H95.0469V7.24023H97.3783V17.4574Z" fill="#fdf7ff"/>
<path d="M98.4492 17.4576V7.24046H102.448C103.279 7.21835 104.089 7.50264 104.724 8.03915C105.033 8.29635 105.279 8.62093 105.443 8.98801C105.607 9.35509 105.685 9.75492 105.671 10.1568C105.671 11.0005 105.372 11.6685 104.78 12.1606C105.615 12.6598 106.035 13.4262 106.035 14.4639C106.035 15.3695 105.715 16.0894 105.065 16.6378C104.416 17.189 103.585 17.4809 102.734 17.4576H98.4492ZM102.448 11.241C102.969 11.241 103.268 10.9415 103.333 10.3354C103.333 9.80811 103.04 9.50859 102.448 9.42985H100.781V11.241H102.448ZM102.73 15.2696C103.315 15.2696 103.635 14.9406 103.7 14.2853C103.7 13.7229 103.379 13.3938 102.73 13.301H100.781V15.2696H102.73Z" fill="#fdf7ff"/>
<path d="M36.6686 24.7001H35.7644V23.1294H34.5199V24.7001H33.6172V20.7432H34.5199V22.2576H35.7644V20.7432H36.6686V24.7001Z" fill="#fdf7ff"/>
<path d="M39.0013 24.7007C38.7464 24.7077 38.4929 24.6612 38.257 24.5644C38.0211 24.4675 37.8081 24.3224 37.6317 24.1383C37.2782 23.7539 37.082 23.2508 37.082 22.7286C37.082 22.2064 37.2782 21.7033 37.6317 21.3189C37.8084 21.1352 38.0214 20.9903 38.2572 20.8934C38.493 20.7966 38.7464 20.7499 39.0013 20.7565H40.5846V21.6269H39.0013C38.7861 21.6159 38.5733 21.6759 38.3955 21.7976C38.2177 21.9193 38.0847 22.0959 38.017 22.3004H40.1543L39.6847 23.1708H38.0184C38.0866 23.3748 38.2198 23.5509 38.3976 23.672C38.5753 23.7931 38.7879 23.8527 39.0027 23.8416H40.586V24.7134L39.0013 24.7007Z" fill="#fdf7ff"/>
<path d="M44.8408 24.7001H43.8565L42.3252 23.6539L41.9933 24.7001H41.002L42.3505 20.7432H43.5007L44.8408 24.7001ZM43.4051 23.301L42.9186 21.7795L42.6064 22.7638L43.4051 23.301Z" fill="#fdf7ff"/>
<path d="M47.5693 24.6909H45.252V20.7354H46.1561V23.8205H47.5693V24.6909Z" fill="#fdf7ff"/>
<path d="M49.9046 24.6909H48.9991V21.6058H47.9824V20.7354H50.9213V21.6058H49.9046V24.6909Z" fill="#fdf7ff"/>
<path d="M54.3854 24.7001H53.4826V23.1294H52.2367V24.7001H51.334V20.7432H52.2367V22.2576H53.4826V20.7432H54.3854V24.7001Z" fill="#fdf7ff"/>
<path d="M56.7211 24.7007C56.4662 24.7077 56.2127 24.6612 55.9768 24.5644C55.741 24.4675 55.528 24.3224 55.3515 24.1383C54.9962 23.7548 54.7988 23.2514 54.7988 22.7286C54.7988 22.2058 54.9962 21.7024 55.3515 21.3189C55.5282 21.1352 55.7413 20.9903 55.9771 20.8934C56.2129 20.7966 56.4663 20.7499 56.7211 20.7565H58.3031V21.6269H56.7211C56.019 21.6869 55.6684 22.0558 55.6693 22.7335C55.7499 23.4722 56.1005 23.8416 56.7211 23.8416H58.3031V24.7134L56.7211 24.7007Z" fill="#fdf7ff"/>
<path d="M62.559 24.7001H61.5747L60.0419 23.6539L59.7101 24.7001H58.7188L60.0659 20.7432H61.2175L62.559 24.7001ZM61.1233 23.301L60.6382 21.7795L60.326 22.7638L61.1233 23.301Z" fill="#fdf7ff"/>
<path d="M66.024 24.6908H65.0524L64.3043 23.3929H63.8824V24.6908H62.9769V22.5998H63.8529L62.9727 21.0924V20.7324H64.5546C64.9142 20.7328 65.259 20.8759 65.5132 21.1304C65.7674 21.3848 65.9101 21.7297 65.9101 22.0894C65.9101 22.5717 65.6683 22.9556 65.1845 23.2354L66.024 24.6908ZM64.7782 22.5337C64.8515 22.4865 64.9113 22.4209 64.9515 22.3434C64.9917 22.266 65.011 22.1794 65.0074 22.0922C65.0115 21.9588 64.9642 21.8289 64.8752 21.7294C64.8349 21.6844 64.7855 21.6485 64.7302 21.6243C64.6749 21.6 64.615 21.5879 64.5546 21.5888H64.2298L64.7782 22.5337Z" fill="#fdf7ff"/>
<path d="M68.0247 24.7007C67.7698 24.7077 67.5163 24.6612 67.2804 24.5644C67.0445 24.4675 66.8316 24.3224 66.6551 24.1383C66.3016 23.7539 66.1055 23.2508 66.1055 22.7286C66.1055 22.2064 66.3016 21.7033 66.6551 21.3189C66.8318 21.1352 67.0449 20.9903 67.2807 20.8934C67.5165 20.7966 67.7699 20.7499 68.0247 20.7565H69.6038V21.6269H68.0247C67.8095 21.6159 67.5967 21.6759 67.4189 21.7976C67.2411 21.9193 67.1081 22.0959 67.0404 22.3004H69.182L68.7123 23.1708H67.0418C67.11 23.3748 67.2432 23.5509 67.421 23.672C67.5988 23.7931 67.8113 23.8527 68.0261 23.8416H69.6038V24.7134L68.0247 24.7007Z" fill="#fdf7ff"/>
<path d="M15.2613 3.59375H4.34386C4.20681 3.59375 4.0711 3.62086 3.94457 3.67352C3.81803 3.72618 3.70316 3.80335 3.60658 3.90059C3.50999 3.99783 3.43359 4.11322 3.38179 4.24011C3.32998 4.367 3.30378 4.50288 3.30471 4.63993V11.0703C3.39189 11.2826 3.48048 11.4922 3.56626 11.7031C3.67594 11.966 3.78562 12.229 3.8953 12.4947V6.01657C3.8953 5.92482 3.93174 5.83684 3.99661 5.77197C4.06149 5.70709 4.14947 5.67065 4.24121 5.67065H15.3625C15.4544 5.67065 15.5425 5.70705 15.6076 5.77188C15.6727 5.83671 15.7095 5.92469 15.7099 6.01657V12.5144L16.3019 11.0872V4.6315C16.3011 4.35601 16.1912 4.09206 15.9961 3.89753C15.801 3.70299 15.5368 3.59375 15.2613 3.59375ZM12.2493 4.8157C12.2241 4.84105 12.194 4.86108 12.161 4.87461C12.1279 4.88813 12.0924 4.89488 12.0567 4.89445H7.5485C7.51268 4.89565 7.47697 4.88978 7.44341 4.87718C7.40986 4.86458 7.37911 4.84549 7.35293 4.82101C7.32675 4.79653 7.30565 4.76713 7.29083 4.73449C7.27601 4.70185 7.26777 4.66662 7.26657 4.63079C7.26537 4.59497 7.27124 4.55926 7.28384 4.5257C7.29644 4.49215 7.31552 4.4614 7.34001 4.43522C7.36449 4.40904 7.39389 4.38794 7.42653 4.37312C7.45916 4.3583 7.4944 4.35006 7.53022 4.34886H12.0567C12.0932 4.34884 12.1294 4.35617 12.163 4.3704C12.1967 4.38463 12.2272 4.40549 12.2526 4.43172C12.278 4.45795 12.298 4.48903 12.3112 4.5231C12.3244 4.55718 12.3306 4.59356 12.3294 4.63009C12.3267 4.69976 12.2981 4.76591 12.2493 4.8157Z" fill="#fdf7ff"/>
<path d="M15.7098 19.3539V23.682C15.7098 23.7738 15.6734 23.8618 15.6085 23.9266C15.5436 23.9915 15.4557 24.0279 15.3639 24.0279H4.24119C4.14945 24.0279 4.06146 23.9915 3.99659 23.9266C3.93172 23.8618 3.89528 23.7738 3.89528 23.682V19.3089C3.77997 19.0881 3.67029 18.8687 3.56342 18.6494C3.47343 18.4638 3.38624 18.2753 3.30469 18.0869V25.7899C3.30506 26.0653 3.41466 26.3294 3.60946 26.5242C3.80426 26.719 4.06835 26.8286 4.34384 26.829H15.2613C15.537 26.829 15.8015 26.7196 15.9966 26.5247C16.1917 26.3299 16.3015 26.0656 16.3018 25.7899V18.0968C16.1134 18.5397 15.9179 18.9573 15.7098 19.3539ZM10.8445 25.8728C10.8445 25.9646 10.8081 26.0526 10.7432 26.1174C10.6783 26.1823 10.5903 26.2187 10.4986 26.2187H9.10651C9.01476 26.2187 8.92678 26.1823 8.86191 26.1174C8.79704 26.0526 8.76059 25.9646 8.76059 25.8728V25.0291C8.76059 24.9374 8.79704 24.8494 8.86191 24.7845C8.92678 24.7197 9.01476 24.6832 9.10651 24.6832H10.4986C10.5903 24.6832 10.6783 24.7197 10.7432 24.7845C10.8081 24.8494 10.8445 24.9374 10.8445 25.0291V25.8728Z" fill="#fdf7ff"/>
<path d="M18.9988 8.13886C18.0862 10.7951 17.2256 13.471 16.3004 16.1259L16.1007 16.6883C15.9779 17.0333 15.8471 17.3741 15.7084 17.7106C15.0517 19.2925 14.1855 20.7634 12.9228 21.9825C12.2197 22.6532 11.421 23.151 10.4536 23.3324C10.2288 23.3757 10.0004 23.3974 9.77156 23.3971C8.81678 23.3971 7.96886 23.009 7.18704 22.4128C5.79775 21.3469 4.93718 19.8817 4.1877 18.3448C4.08505 18.1324 3.98662 17.9229 3.89522 17.7064C3.67586 17.203 3.48462 16.6939 3.30463 16.1779C2.97981 15.2554 2.69295 14.3189 2.37516 13.3951C1.69739 11.4349 1.04774 9.45784 0.382628 7.49765C0.146393 6.79879 -0.0139092 6.08446 -0.00125379 5.49246C-0.0307832 3.1962 1.06883 1.68739 3.12745 1.06306C3.51415 0.947752 3.77991 0.70308 4.05271 0.449971C4.3255 0.196863 4.63908 0 5.00608 0C5.05028 1.01379e-05 5.09443 0.00282814 5.13826 0.00843696C5.36514 0.0215775 5.58217 0.10559 5.75877 0.24863C5.93536 0.391671 6.06261 0.586527 6.12258 0.80573C6.19905 1.01863 6.2088 1.24978 6.15051 1.46836C6.09223 1.68693 5.96868 1.88254 5.79635 2.02909C5.59626 2.21082 5.33544 2.31113 5.06514 2.31032C4.88613 2.30728 4.70924 2.27104 4.54346 2.20345C4.49027 2.18096 4.439 2.15416 4.39019 2.1233C3.91631 1.84207 3.57461 1.69021 3.24557 1.69021C2.88419 1.69021 2.54249 1.86879 2.05174 2.24001C0.801664 3.19198 0.483872 4.49971 0.646986 5.98321C0.735574 6.79738 1.07727 7.52999 1.38944 8.27385C2.03065 9.80844 2.66858 11.343 3.30322 12.8776C3.49915 13.352 3.69601 13.8263 3.89381 14.3007C4.30254 15.285 4.71501 16.2693 5.13123 17.2536C5.76963 18.7638 6.57677 20.1756 7.84653 21.2668C8.48914 21.8194 9.14441 22.095 9.80109 22.095C10.4578 22.095 11.1074 21.8208 11.7402 21.2752C13.0817 20.1278 13.8986 18.6218 14.5694 17.0314C14.9444 16.1259 15.324 15.2198 15.7084 14.3133L16.3004 12.8945C17.0597 11.0693 17.8139 9.24129 18.5629 7.41047C19.1253 6.01696 19.2252 4.60939 18.456 3.2412C18.1855 2.77933 17.806 2.3907 17.3508 2.10924C16.9711 1.86316 16.5999 1.69864 16.2258 1.69864C15.8667 1.70822 15.5233 1.84817 15.2598 2.09237C15.0714 2.24952 14.833 2.33428 14.5877 2.33141C14.3352 2.33147 14.0891 2.25175 13.8846 2.10362C13.695 1.95613 13.5536 1.75553 13.4785 1.52738C13.4034 1.29923 13.3979 1.05388 13.4627 0.822604C13.5331 0.608561 13.6631 0.419049 13.8375 0.276326C14.0119 0.133602 14.2233 0.0435949 14.447 0.0168739C14.4935 0.0168739 14.5413 0.0168739 14.5877 0.0168739C14.7591 0.0191526 14.9282 0.0562233 15.0848 0.125837C15.2415 0.195452 15.3823 0.296158 15.4989 0.421848C15.867 0.787126 16.3248 1.04902 16.8263 1.18117C18.352 1.6213 19.4727 3.1498 19.5894 4.81188C19.6723 5.97196 19.3728 7.0533 18.9988 8.13886Z" fill="#fdf7ff"/>
<path d="M30.2984 21.8518C30.0738 21.8513 29.8516 21.8987 29.6467 21.9908C29.4418 22.0829 29.2589 22.2177 29.1102 22.3861C28.714 22.2616 28.3074 22.1732 27.8953 22.1217L27.8686 22.2933C27.1874 22.2071 26.4964 22.2375 25.8254 22.3833C24.6288 22.6476 23.7542 23.2537 23.0581 23.8134C21.3426 25.1872 20.5453 26.4696 19.8408 27.5987C19.1363 28.7279 18.5317 29.708 17.1466 30.494C16.5982 30.8062 15.4592 31.4572 14.0024 31.2758C12.1646 31.0495 11.1156 29.67 11.0031 29.5139C10.5808 28.9248 10.3094 28.2412 10.2128 27.5228H9.50977C9.60923 28.3881 9.92768 29.2137 10.435 29.9217C10.5672 30.1017 11.7849 31.7005 13.911 31.9649C14.1042 31.9885 14.2986 32.0003 14.4932 32C15.8994 32 16.9863 31.3799 17.4841 31.0945C19.021 30.217 19.703 29.1258 20.4244 27.9643C21.0979 26.8802 21.8629 25.654 23.487 24.3519C24.3968 23.6221 25.1167 23.2467 25.9689 23.0582C26.5567 22.9307 27.1619 22.9032 27.7589 22.9767L27.7378 23.1173V23.1426C28.0667 23.1823 28.3916 23.2491 28.7095 23.3423C28.7095 23.3732 28.7095 23.4056 28.7095 23.4365C28.7095 23.7513 28.8028 24.0591 28.9777 24.3208C29.1526 24.5826 29.4013 24.7866 29.6921 24.9071C29.983 25.0276 30.303 25.0591 30.6118 24.9977C30.9206 24.9363 31.2042 24.7847 31.4268 24.5621C31.6494 24.3394 31.801 24.0558 31.8624 23.747C31.9239 23.4383 31.8923 23.1182 31.7719 22.8274C31.6514 22.5365 31.4474 22.2879 31.1856 22.113C30.9238 21.9381 30.6161 21.8447 30.3013 21.8447L30.2984 21.8518ZM30.2984 24.2422C30.141 24.2422 29.9872 24.1956 29.8563 24.1081C29.7254 24.0206 29.6234 23.8963 29.5631 23.7509C29.5029 23.6055 29.4871 23.4455 29.5179 23.2911C29.5486 23.1367 29.6244 22.9949 29.7357 22.8836C29.847 22.7723 29.9888 22.6965 30.1432 22.6657C30.2976 22.635 30.4576 22.6508 30.603 22.711C30.7484 22.7713 30.8727 22.8733 30.9602 23.0042C31.0477 23.1351 31.0943 23.2889 31.0943 23.4463C31.094 23.6571 31.0102 23.8591 30.8613 24.0082C30.7124 24.1574 30.5106 24.2415 30.2999 24.2422H30.2984Z" fill="#fdf7ff"/>
</g>
<defs>
<clipPath id="clip0_1844_22886">
<rect width="106.036" height="32" fill="white"/>
</clipPath>
</defs>
</svg>