<svg width="21" height="17" viewBox="0 0 21 17" fill="none" xmlns="http://www.w3.org/2000/svg">
<path d="M2.5 16.8066C1.95 16.8066 1.47917 16.6108 1.0875 16.2191C0.695833 15.8275 0.5 15.3566 0.5 14.8066V2.80664C0.5 2.25664 0.695833 1.78581 1.0875 1.39414C1.47917 1.00247 1.95 0.806641 2.5 0.806641H18.5C19.05 0.806641 19.5208 1.00247 19.9125 1.39414C20.3042 1.78581 20.5 2.25664 20.5 2.80664V14.8066C20.5 15.3566 20.3042 15.8275 19.9125 16.2191C19.5208 16.6108 19.05 16.8066 18.5 16.8066H2.5ZM10.5 9.80664L18.5 4.80664V2.80664L10.5 7.80664L2.5 2.80664V4.80664L10.5 9.80664Z" fill="#EADDFF"/>
</svg>
