<svg width="135" height="42" viewBox="0 0 135 42" fill="none" xmlns="http://www.w3.org/2000/svg">
<g clip-path="url(#clip0_1735_34302)">
<path d="M130 1.63398C131.114 1.63398 132.182 2.07648 132.97 2.86413C133.758 3.65179 134.2 4.72007 134.2 5.83398V35.834C134.2 36.9479 133.758 38.0161 132.97 38.8038C132.182 39.5915 131.114 40.034 130 40.034H5C3.88609 40.034 2.8178 39.5915 2.03015 38.8038C1.2425 38.0161 0.8 36.9479 0.8 35.834V5.83398C0.8 4.72007 1.2425 3.65179 2.03015 2.86413C2.8178 2.07648 3.88609 1.63398 5 1.63398H130ZM130 0.833984H5C2.25 0.833984 0 3.08398 0 5.83398V35.834C0 38.584 2.25 40.834 5 40.834H130C132.75 40.834 135 38.584 135 35.834V5.83398C135 3.08398 132.75 0.833984 130 0.833984Z" fill="#73777F"/>
<path d="M43.8803 10.38C43.8803 11.22 43.6303 11.89 43.1303 12.38C42.5703 12.97 41.8403 13.27 40.9303 13.27C40.0603 13.27 39.3203 12.97 38.7203 12.37C38.1203 11.77 37.8203 11.02 37.8203 10.14C37.8203 9.26 38.1203 8.51 38.7203 7.91C39.3203 7.31 40.0603 7 40.9303 7C41.3703 7 41.7903 7.08 42.1803 7.23C42.5703 7.39 42.8903 7.61 43.1403 7.89L42.5903 8.43999C42.4103 8.21999 42.1703 8.04 41.8703 7.92C41.5739 7.79103 41.2535 7.72627 40.9303 7.73C40.2803 7.73 39.7203 7.96 39.2703 8.41C38.8203 8.87 38.6003 9.44 38.6003 10.13C38.6003 10.82 38.8203 11.39 39.2703 11.85C39.7203 12.3 40.2703 12.53 40.9303 12.53C41.5303 12.53 42.0203 12.36 42.4203 12.03C42.8203 11.7 43.0503 11.23 43.1103 10.65H40.9303V9.93H43.8403C43.8603 10.09 43.8803 10.24 43.8803 10.38ZM48.4903 7.14V7.88H45.7603V9.77999H48.2203V10.5H45.7603V12.4H48.4903V13.14H44.9903V7.14H48.4903ZM51.7403 7.88V13.14H50.9703V7.88H49.2903V7.14H53.4103V7.88H51.7403ZM57.1703 13.14H56.4003V7.14H57.1703V13.14ZM60.5903 7.88V13.14H59.8203V7.88H58.1403V7.14H62.2603V7.88H60.5903ZM70.9503 10.14C70.9503 11.03 70.6503 11.77 70.0603 12.37C69.4603 12.97 68.7303 13.27 67.8603 13.27C66.9903 13.27 66.2603 12.97 65.6603 12.37C65.0703 11.77 64.7703 11.03 64.7703 10.14C64.7703 9.25 65.0703 8.51 65.6603 7.91C66.2503 7.31 66.9803 7 67.8603 7C68.7303 7 69.4603 7.3 70.0603 7.91C70.6603 8.52 70.9503 9.26 70.9503 10.14ZM65.5703 10.14C65.5703 10.83 65.7903 11.41 66.2203 11.86C66.6603 12.31 67.2103 12.54 67.8603 12.54C68.5103 12.54 69.0603 12.31 69.4903 11.86C69.9303 11.41 70.1503 10.84 70.1503 10.14C70.1503 9.44 69.9303 8.87 69.4903 8.42C69.0503 7.97 68.5103 7.74 67.8603 7.74C67.2103 7.74 66.6603 7.97 66.2203 8.42C65.7903 8.87 65.5703 9.45 65.5703 10.14ZM72.8003 13.14H72.0303V7.14H72.9703L75.8903 11.81H75.9203L75.8903 10.65V7.14H76.6603V13.14H75.8603L72.8103 8.25H72.7803L72.8103 9.41V13.14H72.8003Z" fill="#296A47"/>
<path d="M64.6 21.8895C62.25 21.8895 60.33 23.6795 60.33 26.1395C60.33 28.5895 62.25 30.3895 64.6 30.3895C66.95 30.3895 68.87 28.5895 68.87 26.1395C68.87 23.6795 66.95 21.8895 64.6 21.8895ZM64.6 28.7195C63.31 28.7195 62.2 27.6595 62.2 26.1395C62.2 24.6095 63.31 23.5595 64.6 23.5595C65.89 23.5595 67 24.6095 67 26.1395C67 27.6595 65.88 28.7195 64.6 28.7195ZM55.28 21.8895C52.93 21.8895 51.01 23.6795 51.01 26.1395C51.01 28.5895 52.93 30.3895 55.28 30.3895C57.63 30.3895 59.55 28.5895 59.55 26.1395C59.55 23.6795 57.63 21.8895 55.28 21.8895ZM55.28 28.7195C53.99 28.7195 52.88 27.6595 52.88 26.1395C52.88 24.6095 53.99 23.5595 55.28 23.5595C56.57 23.5595 57.68 24.6095 57.68 26.1395C57.68 27.6595 56.57 28.7195 55.28 28.7195ZM44.2 23.1995V24.9995H48.52C48.39 26.0095 48.05 26.7595 47.54 27.2695C46.91 27.8995 45.93 28.5895 44.21 28.5895C41.55 28.5895 39.47 26.4495 39.47 23.7895C39.47 21.1295 41.55 18.9895 44.21 18.9895C45.64 18.9895 46.69 19.5495 47.46 20.2795L48.73 19.0095C47.65 17.9795 46.22 17.1895 44.2 17.1895C40.56 17.1895 37.5 20.1495 37.5 23.7995C37.5 27.4395 40.56 30.4095 44.2 30.4095C46.17 30.4095 47.65 29.7695 48.81 28.5595C50 27.3695 50.37 25.6895 50.37 24.3395C50.37 23.9195 50.34 23.5295 50.27 23.2095H44.2V23.1995ZM89.51 24.5995C89.16 23.6495 88.08 21.8895 85.87 21.8895C83.68 21.8895 81.86 23.6095 81.86 26.1395C81.86 28.5195 83.66 30.3895 86.08 30.3895C88.03 30.3895 89.16 29.1995 89.62 28.5095L88.17 27.5395C87.69 28.2495 87.03 28.7195 86.08 28.7195C85.13 28.7195 84.45 28.2895 84.02 27.4295L89.71 25.0795L89.51 24.5995ZM83.71 26.0195C83.66 24.3795 84.98 23.5395 85.93 23.5395C86.67 23.5395 87.3 23.9095 87.51 24.4395L83.71 26.0195ZM79.09 30.1395H80.96V17.6395H79.09V30.1395ZM76.03 22.8395H75.96C75.54 22.3395 74.74 21.8895 73.72 21.8895C71.59 21.8895 69.64 23.7595 69.64 26.1595C69.64 28.5395 71.59 30.3995 73.72 30.3995C74.73 30.3995 75.54 29.9495 75.96 29.4295H76.02V30.0395C76.02 31.6695 75.15 32.5395 73.75 32.5395C72.61 32.5395 71.9 31.7195 71.61 31.0295L69.98 31.7095C70.45 32.8395 71.69 34.2195 73.75 34.2195C75.94 34.2195 77.79 32.9295 77.79 29.7895V22.1495H76.02V22.8395H76.03ZM73.88 28.7195C72.59 28.7195 71.51 27.6395 71.51 26.1595C71.51 24.6595 72.59 23.5695 73.88 23.5695C75.15 23.5695 76.15 24.6695 76.15 26.1595C76.16 27.6395 75.16 28.7195 73.88 28.7195ZM98.27 17.6395H93.8V30.1395H95.67V25.3995H98.28C100.35 25.3995 102.38 23.8995 102.38 21.5195C102.37 19.1395 100.33 17.6395 98.27 17.6395ZM98.31 23.6595H95.66V19.3695H98.31C99.71 19.3695 100.5 20.5295 100.5 21.5095C100.5 22.4895 99.71 23.6595 98.31 23.6595ZM109.85 21.8695C108.5 21.8695 107.1 22.4695 106.52 23.7795L108.18 24.4695C108.53 23.7795 109.19 23.5495 109.88 23.5495C110.84 23.5495 111.83 24.1295 111.84 25.1595V25.2895C111.5 25.0995 110.78 24.8095 109.89 24.8095C108.1 24.8095 106.29 25.7895 106.29 27.6195C106.29 29.2895 107.75 30.3695 109.39 30.3695C110.64 30.3695 111.34 29.8095 111.77 29.1495H111.83V30.1095H113.63V25.3195C113.64 23.1095 111.98 21.8695 109.85 21.8695ZM109.62 28.7195C109.01 28.7195 108.16 28.4095 108.16 27.6595C108.16 26.6995 109.22 26.3295 110.14 26.3295C110.96 26.3295 111.35 26.5095 111.84 26.7495C111.771 27.2908 111.508 27.7885 111.099 28.1507C110.691 28.5129 110.166 28.715 109.62 28.7195ZM120.2 22.1395L118.06 27.5595H118L115.78 22.1395H113.77L117.1 29.7195L115.2 33.9295H117.15L122.28 22.1395H120.2ZM103.4 30.1395H105.27V17.6395H103.4V30.1395Z" fill="#296A47"/>
<path d="M19.9479 20.4277L12.4941 28.3365V28.3435C12.5748 28.6431 12.7236 28.92 12.9289 29.1526C13.1342 29.3852 13.3905 29.5672 13.6778 29.6844C13.9651 29.8016 14.2755 29.8509 14.585 29.8283C14.8944 29.8057 15.1944 29.7119 15.4617 29.5543L15.4827 29.5403L23.8673 24.7041L19.9479 20.4277Z" fill="#EA4335"/>
<path d="M27.4851 19.0833L27.4781 19.0763L23.8596 16.9766L19.7793 20.609L23.8736 24.7034L27.4781 22.6247C27.7969 22.4521 28.0632 22.1967 28.2491 21.8855C28.435 21.5742 28.5334 21.2186 28.5342 20.8561C28.5349 20.4935 28.4378 20.1375 28.2532 19.8255C28.0686 19.5135 27.8032 19.2571 27.4851 19.0833Z" fill="#FBBC04"/>
<path d="M12.4938 13.3301C12.4518 13.4981 12.4238 13.6661 12.4238 13.848V27.8248C12.4238 28.0068 12.4448 28.1747 12.4938 28.3427L20.1996 20.637L12.4938 13.3301Z" fill="#4285F4"/>
<path d="M20.0039 20.8342L23.8603 16.9778L15.4827 12.1206C15.2149 11.9604 14.9136 11.8645 14.6025 11.8402C14.2914 11.8158 13.9789 11.8639 13.6895 11.9805C13.4001 12.097 13.1415 12.279 12.9342 12.5122C12.7268 12.7453 12.5762 13.0233 12.4941 13.3244L20.0039 20.8342Z" fill="#34A853"/>
</g>
<defs>
<clipPath id="clip0_1735_34302">
<rect width="135" height="41" fill="white" transform="translate(0 0.5)"/>
</clipPath>
</defs>
</svg>
