<svg width="25" height="25" viewBox="0 0 25 25" fill="none" xmlns="http://www.w3.org/2000/svg">
<mask id="mask0_3225_77694" style="mask-type:alpha" maskUnits="userSpaceOnUse" x="0" y="0" width="25" height="25">
<rect x="0.5" y="0.806641" width="24" height="24" fill="#D9D9D9"/>
</mask>
<g mask="url(#mask0_3225_77694)">
<path d="M20.45 21.8066C18.3667 21.8066 16.3083 21.3525 14.275 20.4441C12.2417 19.5358 10.3917 18.2483 8.725 16.5816C7.05833 14.915 5.77083 13.065 4.8625 11.0316C3.95417 8.99831 3.5 6.93997 3.5 4.85664C3.5 4.55664 3.6 4.30664 3.8 4.10664C4 3.90664 4.25 3.80664 4.55 3.80664H8.6C8.83333 3.80664 9.04167 3.88581 9.225 4.04414C9.40833 4.20247 9.51667 4.38997 9.55 4.60664L10.2 8.10664C10.2333 8.37331 10.225 8.59831 10.175 8.78164C10.125 8.96497 10.0333 9.12331 9.9 9.25664L7.475 11.7066C7.80833 12.3233 8.20417 12.9191 8.6625 13.4941C9.12083 14.0691 9.625 14.6233 10.175 15.1566C10.6917 15.6733 11.2333 16.1525 11.8 16.5941C12.3667 17.0358 12.9667 17.44 13.6 17.8066L15.95 15.4566C16.1 15.3066 16.2958 15.1941 16.5375 15.1191C16.7792 15.0441 17.0167 15.0233 17.25 15.0566L20.7 15.7566C20.9333 15.8233 21.125 15.9441 21.275 16.1191C21.425 16.2941 21.5 16.49 21.5 16.7066V20.7566C21.5 21.0566 21.4 21.3066 21.2 21.5066C21 21.7066 20.75 21.8066 20.45 21.8066Z" fill="#EADDFF"/>
</g>
</svg>
